<svg xmlns="http://www.w3.org/2000/svg" viewBox="0 0 416.24 28.81"><defs><style>.cls-1{fill:#231815;}</style></defs><title>アセット 1</title><g id="レイヤー_2" data-name="レイヤー 2"><g id="レイヤー_1-2" data-name="レイヤー 1"><path class="cls-1" d="M11.31,23.86l.45.12-.71.64.3.75-.19.64-1.24-.45v-.38a.89.89,0,0,0-.38.31c.07.12.09.22,0,.3l.52.15-.34-.27,1.29.38-.19.38h-.08a.46.46,0,0,1-.41-.27l0,.49-.49-.11-.34.15-.68-.3-.53.3.75.11a4.84,4.84,0,0,1-1.77.53l.53-.3c-.08-.35-.16-.54-.26-.56L7,26.54l.23-.38h0q-.15,0-.15-.6l-.19-.19L7.35,25l.23.18-.19-.37H7.24l0-.57-.16-.11.23-.19L7,23.83l.42-.57-.19-.07.41-.34c0-.15-.09-.19-.26-.12L8,22l-.56-.08a4.39,4.39,0,0,1,.34-.83l-.19-.37.07-.08L7.5,20.4l.23-.08-.23-.87v0l.19,0,.08-.45L7.35,19l.38-.49h0v-.34a2.08,2.08,0,0,1,0-.3l0-.26h.08L8.11,17H7.8v-.49l.38,0v0L8,16.32,8.14,16l-.41-.37a4,4,0,0,1,.19-.76.9.9,0,0,1-.08-.41A2.71,2.71,0,0,1,8,13.5v0a3.59,3.59,0,0,0-.19-1l.42-.76-.19-.18L8.26,11l-.15-.11L8,10.44,8.33,10,8,9.73A.57.57,0,0,0,8,9.2l.34-.26L8,9.05l.33-.83L8.18,8l.15-.19L8,7.43l-.26.26-.38-.26A1.41,1.41,0,0,1,6.3,7.5l-.12.42a2.13,2.13,0,0,0-.64-.3c-.07,0-.1.1-.07.22l-.38-.19-.68.23V7.65a.79.79,0,0,0,0-.22l0,0-.34.45L4,7.31H3.92l-.07.15L3.77,8l-.49-.49H3.17l-.49-.11v0l.15.76L2,7.5,1.88,8l-.64-.6-.11.19C.75,6.69.38,6.21,0,6.11l.26-.19L.15,5.77l.91-.49.3.15A8.33,8.33,0,0,0,3,4.56l-.11.53h0l.19.08A3.09,3.09,0,0,1,4.67,5l.57-.9.11.38h0a.32.32,0,0,0,.19-.1.35.35,0,0,1,.19-.09l.11.07.49-.22.23.22.83-.26.22.07.49.46.38-.15-.23-.34.38-.42-.19-.3.57-.53-.27-.26,0-.57.07,0,.38-.46L9,1.28,9.2.79,9.12.49,9.5.57l.91-.23,0,0,.34-.3.41.45-.19.19.15.08.46-.08-.31.68.16.19-.34.19.15.11.34.49-.27.15.12.11.49-.11L11,3.32l0,.07-.27.08.15.07.23-.07.6.6-.45.08v.19l.38.18-.38.15h.11a1.36,1.36,0,0,1,.76.23l.34-.15.79.34.41-.19.23.3.6-.19.19.19.57-.15,0,.15.11-.07.72.37.83-.07.45,0a.69.69,0,0,0,.45,0l.49.3.12-.15a2,2,0,0,1,.75-.12,1.73,1.73,0,0,1,1.21.34l.3-.34.19.23,0,0,.38.19L22,5.69l.41.12.42-.23c.1.18.2.26.3.26a6.67,6.67,0,0,0,.64-.3l.23.11c.4,0,.61,0,.64-.11l.56.19.12-.11.41.41.11-.11a3.67,3.67,0,0,1,1.06,1.2l-.72.68.08.12-.08,1.17-.56-.23,0,0h-.49q0-.15-.27-.15a.3.3,0,0,0-.3.15l0-.38-.22.08-.15-.08L23.9,9l-.38-.22,0-.08h-.41V8.48l-.42.46.08-.34-.64.45.56-1a1.29,1.29,0,0,0-.45-.11c-.15,0-.21.15-.19.45L21.38,8l-.15.27L20.85,8a3.52,3.52,0,0,0-.6.3,1,1,0,0,0-.46.49l-.45-.71v.26a1.2,1.2,0,0,1-.41-.11,1.14,1.14,0,0,0-.42-.12l-.34,0,0,.08C17.35,8,16.94,7.75,17,7.65l-.82-.26,0,.34-.6,0V7.58L15.08,8l-.26-.45L14.44,8l-.38-.56-.15.15-.79-.34c0,.07-.16.09-.41,0l-.08.15,0,.07.34.27-.3.37-.31-.26.12,0-.8-.72-.49.46-.6-.46L11,7l-.34-.19c-.22,0-.34.12-.34.19s.19.37.57,1L10.48,8l.26.42h0c.13,0,.19.1.19.3l-.26.27-.3-.27h0l.19.49-.42.34c0,.13.19.18.49.15l.08.11a1.16,1.16,0,0,1-.12.46h.31l-.16.49.08.26-.45.23.26.3-.15.38-.56-.42,0,0,.64.53,0,.18a1.5,1.5,0,0,0,.49,1.17l0,0c-.08,0-.14.05-.19.15a.17.17,0,0,0,0,.19l-.91.56.08-.38L10,14l-.45.15.19.41a.41.41,0,0,0-.15.34l.07.08.19-.08A1.44,1.44,0,0,1,10.9,14a1,1,0,0,0,.26.72l-.19.38.08.34-.38.19.41.71-.41.23.26-.08.34,1.17-.3-.07,0,.26-.34.41L11.2,18l-.08,1.13.08.07-.38,0-.3,0,.15,0,.75.31-.22.37.3.45-.38.34,0,.42.19.07-.15.27.19.11.15.6-.75-.41L9.88,22l.41,0,0,.64.45-.38.42.3-.08.15h0l.07.76h0l.22.22ZM8,7.39a3.59,3.59,0,0,1,0-.53l-.19-.19-.64-.11c-.18,0-.27.08-.27.23l.27.11.64-.08,0,.27ZM7.73,19.6l.07-.15-.11-.07,0,.15Zm.07-2a3.62,3.62,0,0,0,.72-.34l0-.15ZM8,20.28H8l0,0Zm.71,3.92-.34,0,.11.18,0,.15.19-.07v0Zm.08-.15.15-.19-.12-.07-.07.11Zm.52-4.18.12,0,0-.08Zm.08-15,0,0v0Zm1-1.43.15-.08h-.08Zm.07,15v0h0Zm.42,5.32h0l-.26.26,0,.15.19.08A2.14,2.14,0,0,1,10.86,23.79Zm0-21,0,.07.07-.11ZM12.4,7.28l-.11-.12,0,.08Zm1.4-.76-.15-.11.15.15Zm5.16,5,.38-.23.19.45-.42.16h0l1-.42.27-.34.49.23c.25,0,.37,0,.37-.12s0-.05-.07-.07l.75.26.57-.15.19.12a2.68,2.68,0,0,1,.82-.08q.46,0,1.32.06c.58,0,1,.07,1.25.09l.11.11c.86,0,1.71.07,2.56.12a7,7,0,0,1,2.42.64l.26-.08.27.34.11-.11.75.41-.19.46.31-.08.3.08-.12.34-.33,0,.15.34.18-.15.68.3-.79.23c.05.4.08.62.08.64l0,.72-.38-.31-.22.08L32,15.42l0-.11-.56.64a5.81,5.81,0,0,1-.46-1l-.64-.11.23.52h-.45l-.23-.41.34-.11,0,0,.15-.15-.41-.08-.11-.15-.34.27v.11l-.31-.08,0,.12-.22.37-.38-.49-.11,0-.19.42L27.82,15l-.19.26-.45-.45a.27.27,0,0,0-.26.22l-.42-.18.27-.49.19,0L26.88,14l-.08.19-.49.3-.15-.45-.18.19-.38-.19c.1.48.15.73.15.76v.3l-.68-.68-.49.38.72,0a1.23,1.23,0,0,0-.57.91l-.11-.08,0,0,.15.11.11.46-.26.18.68.49-.34.42.53.08-.12.22.23,0,0,.53.3.34.3-.11L27,19l.3-.11a1.91,1.91,0,0,0,1.17.49v0h.11l-.15.08,0,.3.71.23-.07.22.3-.22v.64l.9.68v.07h.12a.71.71,0,0,1,.56.34l0,.34.31.3.33,0v.38l.08.15.41.11-.26.49-.11,0v0l-.3.64.41.23-.56.19v.26h-1c-.25-.35-.63-.89-1.13-1.62l-.46-.08-.41-.83c-.13,0-.45-.31-1-.86l-.19.11-.53-.15-.19.15-.3-.23-.3,0-.11-.34v0l.11.68-.56-.08.26.68.23-.11.71.64-.56.07v.27l-.23.26,0,.12-.49,0-.19.23-.49.15.07.23.38-.27,0,.57.34.38-.64.3.07,0a1.64,1.64,0,0,0,0,.65l-.61,0,0,.12v.37l-.38-.19-.26.19-.34-.07,0,.07-.61.3-.15-.07-.34.34-.22-.19.11.41-.26.08a.66.66,0,0,1-.38-.11l-.23.11.08.11-.49.3-.26-.26,0,.08c-.18,0-.22-.1-.11-.31l-.68.34.3-.75-.27-.23-.26.19-.83-.11-.38.23a3,3,0,0,1-.67-.68l-.65.15.53-.68-.11-.19v0l-.49.15.26-.42-.83-.41.57-.42-.19-.07.34-.23-.3.12,0-.23a1.44,1.44,0,0,0-.23-.72l.15-.6.19.11.26-.56-.07,0h-.46V21.9l0,0,.6-.49a1.1,1.1,0,0,0,0-.31l-.19.08.31-.6-.27-.15a1.35,1.35,0,0,1,.72-.57l-.27-.53.65.15.49-.15.11.12.15-.16-.42-.18a3.12,3.12,0,0,1,1.44-1.66l0,.19.11-.19.34.07v.08l.15-.08.38.08-.11-.11.68-.31a2.14,2.14,0,0,0,1.2.12c.08.22.32.39.72.49l.11-.46L23,17.23l-.12-.68a.78.78,0,0,1-.49-.49s0-.28,0-.68L22.21,15l.18-.3-.34-.38s-.1-.16-.37-.34l-.94.16L20.47,14l0,.07.08.34-.38.23-.19-.08,0,.08-.72-.26-.11-.27-1,.19,0-.3-.3.07-.22-.15-.38.15,0-.3-.11,0a2.72,2.72,0,0,1-1.21-.34l-.53.3L15.12,13l-.79.19-.27-.9-.34,0a1.47,1.47,0,0,1,.36-1A1.1,1.1,0,0,1,15,10.9l.34.22a11.22,11.22,0,0,1,1.28-.34l.22.15,1.14-.3L17,11.5l-.19-.15-.11.07.08.27.56-.3.42.37v-.11l.22-.38.38.27-.11.18.22,0a.86.86,0,0,1,.49.15ZM15.53,7.24h.38a.88.88,0,0,1-.3-.27c0,.08-.08.17-.23.27l.15,0Zm1.17,4.52-.26,0-.08.12h.27ZM17,7.65l0-.07-.15-.08Zm.31,16.85.34.12v0l-.23-.15ZM18.81,7.09A.35.35,0,0,1,18.7,7v0ZM20.7,25.26,20.62,25v-.34a4.67,4.67,0,0,1,.83-.08l.15-.72.15.23c0-.15.05-.31.08-.49h.3l.15.15,0,.23h.15l.19-.08-.22-.15.15-.34a3.26,3.26,0,0,1-.87-.9l.79.15h.08a1.42,1.42,0,0,1,.53-.45l0-.08h-.19a.73.73,0,0,1-.75-.49l.41-.19h0l.15-.22a.43.43,0,0,0-.15-.31v-.34l-.15-.15-.15,0a.58.58,0,0,1-.41-.23l-.83.34.07.31-.45-.19a5.05,5.05,0,0,0-1,.9l0,.08c-.13.25-.3.63-.53,1.13l-.11,0v0a2.14,2.14,0,0,1,.34.79,3.48,3.48,0,0,0-.3.26,1.37,1.37,0,0,1,.75.78.75.75,0,0,0,.72.54ZM19.26,7.73l.38.22.15-.22-.15-.57-.34.3h-.11C19.21,7.54,19.24,7.63,19.26,7.73Zm.46-.68.22.07L19.75,7Zm3.05,13.53a3.59,3.59,0,0,0,.64.15l.19-.22a4.3,4.3,0,0,0-.45-.3A.56.56,0,0,1,22.77,20.58Zm1.51-5.76-.19-.23L24,14.7l.16.12Zm0,7.5,0,0h0Zm.83-8.79.11-.26-.07-.08-.11.08v.19Zm3.05.53a.88.88,0,0,1,.31-.07v0l-.15,0a1.57,1.57,0,0,1-.57-.23l0,.19Zm.46-.71v0l-.23.12.11.11.38-.11Zm.37.15,0,0,0-.07Zm3,1.66,0,0h-.08Z"/><path class="cls-1" d="M47.39,10.52v0l-.15.15v0A.13.13,0,0,1,47.39,10.52Zm.34,3.77h-.11v-.15h.11Zm2,8.18-.22-.15.07-.38h0a1,1,0,0,1-.15-.41c0-.23-.13-.32-.23-.27l-.41.15a7.66,7.66,0,0,1,.23-1.58l-.68-.23.3-.07a2.15,2.15,0,0,1-.23-.27q0-.15.27,0l.3.11.22-.26-.56-.68-.34.19-.26-.42.3-.15.3.3.87-.49.07,0,.08-.15-.34-.53-.49.34.07.19-.37-.23-.34.23-.23-.3c0-.05.16-.08.49-.08l.11-.26h-.11l-.3.11a.75.75,0,0,1,.19-1l-.68-.71.56-.91.19.08v-.08l-.11-.45-.53-.19v-.34l.34-.56-.3-.12.23-.34-.34-.3.79-1.51-.12-.11-.11.38-.6-.19v-.11l.19-.57.49-.3.22.11.12-.11-.12-.08V9l-.49-.07,0-.12.22-.6.11.11L48.71,8l0-.19-.53.27a7.41,7.41,0,0,0,.27-1.77h0A3.63,3.63,0,0,0,50,5.75a3.7,3.7,0,0,1,1.49-.55,2.45,2.45,0,0,1,.38,0L52.29,5l.87.64-.34,1,.34.49-.23,0a3.71,3.71,0,0,1-.53.45l.68.42h-.3a1.89,1.89,0,0,1,.08.53,4.39,4.39,0,0,1-.46,1.58l.53,1.32-.38.64.31.41-.08.46-.53.07.87,1.17,0,.23.42.56-.19.87.15.53L54,16.1l-.15.34.37.22-.56.46,0,.26-.34.26.19.61c0,.07-.15.06-.31,0l0,.49.07.07.64-.3.19.27-.11.71.07.15.34-.49-.07-.56v-.08h.6V18l.72-.15a2.17,2.17,0,0,1,.41-.6l.19.34.34.19.15.45H57l1-1.55.64.3.6-.41L59,16.17l.53-.15c0,.08.08.09.18,0a.22.22,0,0,0,.12-.19l.34.38,1.28-1.06a1.91,1.91,0,0,1,.81.38l.62.53v.41l.38,0v0l-.23.37.53.38.19-.15.34.3-.15.19.3.3-.15.57.53.26,0,.42.64.68.38-.23,0,.15.45.87-.26.49.19.49.22,0,.79.6.87-.64.19,0-.3.64.45.42.23-.42-.12-.64v-.15h.42l.34-.72.11.12.41-.19L70,21l.56-.34.19-.38.57-.07.11.64c.08,0,.13-.1.15-.23s0-.2-.07-.22l.94-.64.19.22v-.15l.26-.79-.22-.07.52-.31.34.38,0-.07.16-.46.75-.15.3-.79.42-.11a.21.21,0,0,0,0,.26.37.37,0,0,0,.24.19l.19.38.71-.38-.11-.38-.38-.11-.26.15-.15-.26.3-.46.64.46.15-.34.34.26.15-.75.19-.12.19,1.1h.08l.18-.23v-.41l.27-.27.64.72-.42.38.12,0,.34-.07v.64l-.08,0-.3-.23v.19c0,.07-.16.16-.49.26l.38.23.26-.11.3,0-.26.64h0l-.34.19,0,.12-.57.64.31.22-.57.76-.49-.12-.6.57-.23-.38a2,2,0,0,1-.6,1l-.19-.07-.11.41-.57.19.08.42a2.58,2.58,0,0,1-1.14.56L73,23.34l.07.34L73,24l-.76-.41,0,.08.23.15v.52l-.72.31-.64-.27-.11.79L70.42,25h0l.22.37a1.59,1.59,0,0,1-.64-.07l-.34.49-1.54.11c0-.07.07,0,.07.3,0,.08-.16.07-.49,0,0,0,0,0-.09.07s-.07.08-.1.08l-.07-.12.38-.3,0-.15-.15-.64-.45.26,0,1.06-.3,0-.42-.64-.41.42-.26-.31-.57.27,0-.76-.56,0,.15-.41h-.34l-.11-.68h-.08l-.34.19,0-.42a.24.24,0,0,1-.11,0l-.08-.15c0-.18.06-.28,0-.3l-.27.15s0-.13,0-.3l-.19-.23-.22.34-.12,0,.23-.41-.49-.42.08-.26L62.39,22a3.05,3.05,0,0,1,0-.76l-.11-.19-.19.49-.3-.07.15-.34c0-.2-.16-.4-.49-.6a2.46,2.46,0,0,1-.72-.53l-.15.26-.19-.37-.07,0-.79-.45a3.61,3.61,0,0,0-1.59.79l-.34-.19-.18,0,.37.49-.26,0-.23.31L57,20.62l-.56.45L56.25,21l-.94.57-.19.37-.45-.18-.19.11.3.49.11-.3.11.45-.49.19.08.11c0,.08-.05.11-.15.11s-.22,0-.27,0l-.37,1-.64-.11a3.82,3.82,0,0,0-.85.21,3.63,3.63,0,0,1-1,.21.33.33,0,0,1-.3-.12l-.49.42-.19,0-.08,0,.12-1L50,23.34l.23-.83-.23-.3C50.05,22.38,50,22.47,49.76,22.47ZM48.67,11.8a.37.37,0,0,0-.23.11,1.24,1.24,0,0,1-.22.19s.05,0,.15,0A2.3,2.3,0,0,1,48.67,11.8Zm0,9.5H48.6L48.52,21h.11ZM49,9a.27.27,0,0,0-.11.23l0,.07A.44.44,0,0,0,49,9Zm.34,8.33,0,0-.11.15A2,2,0,0,1,49.31,17.34Zm.87,4V21c-.1-.12-.18-.19-.23-.19s-.05,0-.09.06-.07.06-.1.06-.13-.07-.18-.21-.13-.21-.23-.21a.21.21,0,0,0-.11,0c.07,0,.13.2.18.53C49.68,21.14,49.93,21.23,50.18,21.3Zm-.38-1.21c0-.12-.14-.26-.41-.41a1.32,1.32,0,0,0,.34.49Zm.45,0c0-.12-.15-.19-.37-.19ZM52.14,9.84c-.2.2-.3.34-.3.41a.38.38,0,0,0,0,.14.45.45,0,0,1,0,.13C52,10.47,52.11,10.24,52.14,9.84ZM52.48,9l-.19-.3a2.36,2.36,0,0,1-.26.38Zm.45,5.5h0c-.17,0-.42.17-.75.49v.27c.12,0,.25-.1.38-.3s.25-.3.37-.3Zm.42-5.35q-.42,0-.42-.3a.27.27,0,0,0,.26-.3.24.24,0,0,0,0-.15C53.28,8.48,53.35,8.73,53.35,9.16Zm-.19,2,0,.11v0a.16.16,0,0,1-.07.15l0,0A.37.37,0,0,1,53.16,11.2Zm2.22,9.08a.41.41,0,0,0-.41-.22l-.23,0h-.23l.08.31Zm.72-1a.68.68,0,0,0-.4-.32.34.34,0,0,1-.24-.43c-.21,0-.3.16-.3.42a.36.36,0,0,0,0,.11c0-.08,0-.11.15-.11s.14.08.25.26a.85.85,0,0,0,.24.3Zm.56,0a.53.53,0,0,0-.3-.52,1.54,1.54,0,0,1-.19.41,2.44,2.44,0,0,1,.27.45A.35.35,0,0,0,56.66,19.26Zm.46-1.43H57v-.26h.12ZM58,18s-.07,0-.07.11v.11h0l0-.07Zm.53.49q0-.07-.15-.12h0l.15.12Zm5.17.45v-.15a.58.58,0,0,0-.34.52A1.82,1.82,0,0,0,63.68,18.89Zm6.78,3.73c0-.2-.06-.3-.19-.3v.11C70.27,22.53,70.33,22.6,70.46,22.62Zm.08-2.41h-.15c0-.18,0-.29.15-.34a.5.5,0,0,0,0,.19A.54.54,0,0,0,70.54,20.21Zm0,2.11v-.11l-.08-.08,0,0,0,0C70.46,22.26,70.49,22.29,70.54,22.32Zm1.28-1.43v.3L72,21Zm2.41-.95c0-.12-.28-.25-.75-.37a.16.16,0,0,1,0,.11v.07a.67.67,0,0,1-.07.31,2.38,2.38,0,0,0,.4-.06A2.17,2.17,0,0,1,74.23,19.94Zm1,1.47a1.28,1.28,0,0,1-.19.23C75.19,21.64,75.25,21.56,75.25,21.41ZM75.66,23l-.11.15,0,0,0-.15Zm3.4-5.81a2.49,2.49,0,0,1-.34.08,1.8,1.8,0,0,0-.19-.46.91.91,0,0,1,.15.23A.52.52,0,0,1,79.06,17.19Z"/><path class="cls-1" d="M111.82,12.86l-.27,0-.18,0,.15,0,.3,1.1c0,.25-.19.47-.57.68s-.64.21-.94.33l-.23,0-1.16.45-.19-.19-.42.19-.07-.19-.23.34-1.21.3-.56-.22c-.2.42-.78.69-1.74.79l-.41-.3-.15.26-1.4-.08-.37-.34-.08.12.23.37-.34.46-.27-.3-.33.18V17l-.23.42-.19-.23-.49.19-.23,0c-.37.3-.72.59-1,.87a3.77,3.77,0,0,0-.85,1.17h0l-.34.26.27.08-.87.3.3,0,.08.41-.46,0,.16.45-.57-.19-.23.12.46,0,.41.49-.07.64v0a2.22,2.22,0,0,0,1.54.76,3.85,3.85,0,0,1,1.58.37l.15-.22a8.56,8.56,0,0,0,1.32.22l0,0s0,0,.07.07h.53l.41-.41-.11.3.45-.19.57.26.38-.49.15.15a1,1,0,0,1,.19-.15l0,.23c.15-.1.76-.39,1.81-.87l.19.15.38-.07.15-.27.68.42.22-.49.57.41-.08-.37.46-.31.18.12.12-.12.38,0,.33-.34.57.61.08-.8.67-.45.42.38.6-.38.76.53-.64,0,.37.23,0,.22.38.65-.19.6-.22-.15v.45l-.3.08-1.1-.8-.15.12.87.71h.11l.11.46c.05,0,.17-.09.34-.27.31.5.54.77.72.79l.6-.6-.37.64.15.11.37-.07.08.26h-.08l-.3-.15-.26.38-.27-.45,0,.26.26.38-.41,0-.31.37-.75.23-.34-.15,0,.34c-.91.1-1.45.27-1.62.52h-.38l-.6-.37-.08.37-.41-.15-1,.27-.34-.57-.23.3-.22-.3-.12.3-.26-.22v.37l-.53.27-.41-.08-.08-.49-.19,0a3,3,0,0,1-1.69.52l-.72-.22-.11-.3-.42.41-.87-.3a1.38,1.38,0,0,1-.79.22,6,6,0,0,1-2.15-.94l-.22.23L97.72,25l-.11.19-1.51-.79.07-.15-.37,0-.12-.34L95,23.6l-.27-.45.15-.64-.11,0-.15.49-.75-1,0-.41A3.17,3.17,0,0,1,93.5,20l.56-1.39.15.07-.34-.34.23,0,.49-.26.19,0,.38-.26,0-.19-.27.15-.34-.22,1-.72-.19-.11.83-.57.12.23.37-.34-.22-.53.11-.3q-.15-.37-2-3.36a6.62,6.62,0,0,1-1.35-3.39h-.08l-.34-.15c-.73-1.71-1.15-2.73-1.28-3a10.24,10.24,0,0,1-.83-3.1c.5-.2,1.26-.52,2.26-1l.83,1-.22.15.41.19,0,.45.53.53L94,3.92l.15.42.19-.16.3.27-.15.34.6.26-.19.15-.22,1h-.46l0,.37.31.12L95,6l.27.07-.23.42.11.19L95.57,6l0,.49a16.06,16.06,0,0,1,1,1.58h-.07l-.26.64-.23,0-.19.23.34.19,0,.83.76-.23-.15.49.34,1,.15-.3.22,1-.6.3v.08l.07,0,.31,0,.26.45-.19.34.15.07.42-.41,0,.45.82.68.27-.07-.12.18h.19l.53.53.45-.41.61.68h.41l.15-.08-.56-.49.07-.19.64-.15,0,.38.19-.23-.11-.11.26-.23.6.68-.15-.79.42,0,1.09.49.15-.11-.75-.45.34.07.26-.34.19.34.41-.23.23.16.34-.53.26.11a7.71,7.71,0,0,0,1.13-.15,5,5,0,0,1,1.14-.08v-.18l-.31-.57.19-.34a2.08,2.08,0,0,1-.51-1,3.23,3.23,0,0,0-.47-1.09l.27-.9-.12,0a.21.21,0,0,1-.07.15L106.28,8l.26-.45,0,0,.11-.08L106.05,7a.5.5,0,0,1,.45-.22h.34l-.22-.38-.16.26V6.6l-.26-.08-.11-.37.15-.42.41-.11V5.54l-.41-.07-.38-.38.6-.75a.75.75,0,0,1-.07-.53.78.78,0,0,0-.26-.68l1.13-.72h.49a2,2,0,0,1,1.77-.6l.41,1.06-.11.33,0,.38.49.68-.42-.19-.22.38.68.87a3.06,3.06,0,0,1-.12,2l.3.42.46-.15.15.22-.38.31.15.56,0,.57h-.45v.07l.34.19.3-.23.3.23-.56.23.11.34-.34,0,.68.49.23-.15.19.34-.34.53.37.72-.07.49ZM93.5,3.62l-.08,0a.35.35,0,0,0-.19.11A.87.87,0,0,0,93.5,3.62ZM96,18.7a2.78,2.78,0,0,0-.12-.26,2.87,2.87,0,0,0-.49.18.43.43,0,0,0,.31.15h0A2.42,2.42,0,0,1,96,18.7Zm.15,4.94L96,23.56l-.19.23,0,.07Zm.15-5.54c0-.1,0-.2-.08-.31l-.26.31Zm.83-8-.08.27h-.07l.07-.27Zm1.17,2.26a.45.45,0,0,0-.15.19.29.29,0,0,1-.14-.07.29.29,0,0,0-.17-.08.24.24,0,0,0-.11,0l-.11,0a1.07,1.07,0,0,1-.15-.34c0-.1.11-.25.34-.46a.41.41,0,0,0,0,.19.5.5,0,0,0,.07.27.33.33,0,0,0,.12-.23A2.34,2.34,0,0,0,98.25,12.4ZM99,13v.08c0,.2-.11.3-.34.3a.13.13,0,0,0-.07,0Zm1.47,4.23a.22.22,0,0,0-.19-.12h-.07v.19h0A.39.39,0,0,0,100.47,17.27Zm.08,7.65v-.11h-.23v.11Zm1.5-1.7v.08l0,0Zm1.21-9.46h-.34l.19.23A.6.6,0,0,1,103.26,13.76Zm3,.38h-.15a.22.22,0,0,1-.08.15l.08,0h0C106.24,14.33,106.28,14.26,106.28,14.14Zm.45,11V25a3.15,3.15,0,0,0,0-.45l-.19.34C106.5,25,106.58,25.07,106.73,25.15Zm.53-10.37a1.22,1.22,0,0,0-.08-.34l-.15.07A1.66,1.66,0,0,0,107.26,14.78Zm.49,10.4v0c0-.08,0-.17-.08-.27l0,0A.34.34,0,0,0,107.75,25.18Zm1.81-3.13a1.31,1.31,0,0,0-.46.53l.23.23A2.05,2.05,0,0,0,109.56,22.05Zm.56-16.55a.78.78,0,0,1-.22-.26,3.22,3.22,0,0,0-.31.45.5.5,0,0,0,.27.08C110,5.77,110.07,5.68,110.12,5.5Zm.61,2.64c0-.17-.19-.36-.57-.56a.35.35,0,0,0-.11-.23L109.9,8l.41-.23A.69.69,0,0,1,110.73,8.14Zm-.08-2.75-.23,0,0-.11h.15Zm.56,5.92a.1.1,0,0,0-.07,0,1.7,1.7,0,0,0-.38.08l.19.22Zm0,1.47,0-.23-.07.19Zm0,.19v0Zm.3,8.18-.11,0,0,.12,0,0Zm.38,4c0-.15-.19-.32-.49-.49a.28.28,0,0,0,0,.15c0,.15.13.2.38.15,0,.17-.09.31-.11.41Zm.6.15V25h-.07v.27Zm5.88-11.24a4.44,4.44,0,0,0-.6.27l-.45-.15-.76.18,0,.15a2.55,2.55,0,0,1-.53.76l-.37.11-.27-.22,0-.27a1.87,1.87,0,0,1-.19-.53l.53-.18,0-.38h-.08l-.26.15-.34-.19a2,2,0,0,1-.11-.6l.15-.46,0-.11c-.23-.05-.34-.15-.34-.3a5.85,5.85,0,0,1,.23-.72l.22-.07a7.65,7.65,0,0,0-.75-.68,1.68,1.68,0,0,1,.56-.11l.08-.12-.08-.07-.37.07-.12-.49-.18.23h0a2.53,2.53,0,0,1,.07-.75l.23.07.26-.23-.64,0,.38-.23,0-.19-.3.08-.15,0,.26-.15.08-.26h-.15c-.3,0-.47-.13-.49-.38a2.6,2.6,0,0,1,0-.76l-.22-.15.07-.45a11.88,11.88,0,0,0-.26-2.11,11.88,11.88,0,0,1-.26-2.11.67.67,0,0,1,0-.23l.46-.15a5.77,5.77,0,0,1,2.45.64h0l.42.53a.84.84,0,0,0,.19.53l0,.34a2,2,0,0,1,.42.71l-.34.23a3,3,0,0,1,.49,1L117,6.18l.19.42h.3a8.28,8.28,0,0,1-.11,1,1,1,0,0,0,.19.6l-.08.26.12.15.19-.11.07.38v.37h-.26l-.42,0,.27.3.3-.19v.42l-.08,0-.15-.12-.22.34.11.19.11,0,.27.31a1.18,1.18,0,0,0-.31.52h.12l.11-.3.34.12-.26.15,0,.11-.19.83.12.11.37-.26L118,12a3.66,3.66,0,0,1,.15.6h-.41a5.74,5.74,0,0,1-.31.64l0,.19a3,3,0,0,1,.49-.75l.08.07L118,13l.46.19-.15.38Zm-5,7.84V22q0,.07-.12.15v0C113.36,22,113.4,21.9,113.48,21.9ZM118,10.59l0-.22,0,.19Zm.56.83a.74.74,0,0,1-.49-.19.34.34,0,0,1,.19-.22A1,1,0,0,1,118.6,11.42Zm-.3.49h-.07l0-.26h.07Zm.3-1-.33-.08,0-.19A.57.57,0,0,1,118.6,10.9Zm0,1.62v0a.53.53,0,0,1-.15.15l0,0c0-.1.06-.15.11-.15h.08Z"/><path class="cls-1" d="M155.73,23.63l-.32.68h-.3l-.73,1-.47.08.14-.4-.55-.25-.62.32.08-.21-.3-.11-.07.54.26.32-.37.43-.55-.11c-.63.1-1.58.3-2.85.61l-.84-.39-.26.36-.62.1a.46.46,0,0,1-.46-.28,3.89,3.89,0,0,0-.27-.54l-.81.39v.36l-.11-.54-.36,0c.05,0,.07-.06.07-.18h-.33l-.07-.39-.29.21a9,9,0,0,0-1.65-1.22l-.07.47h-.18l-.26-.36-.37-.14.41-.32-.15-.11-.44.25-1.1-.57-.36.18-.73-.08c-.15-.38-.34-.95-.59-1.72l-.07.4-.51-.25.18-.36.37-.11v-.07l-.92-.18.07-.57.44-.29-.25-.18-.26-.64.22-.54-.4-.32.4-.5-.26-.15c.1-.35.21-.71.33-1.07a2.64,2.64,0,0,1,.63-.93l-.26-.65.58,0,.44-.32,0-.26.58.69c.47-.1.67-.3.63-.61l.36-.43.08.57.32.25h.15l-.4-.54.36.07a1.11,1.11,0,0,1,.81-1.14l-.44-.22-.37.51-.11,0-.1-.79h.4l.29.18.73-.32.88.28.29-.46-.14-.5.25-.61-.11-.14.48-.36.29.43-.07.36a1.54,1.54,0,0,0,.36,1l.37,0-.33-.64,1-.36v.53l.29,0v-.32l.26-.4-.88.11-.29,0,.07-.86.7.57-.11-.22.14-.14.44.11.37-.32-.41-.25.15-.33-.62-.57-1.13.32h-.15l.47-.28-.29-.29-.22.32-.44-.46-.36.64-.77-.5,0,.43-.26-.36,0-.29-.33.54-.66-.32V10l.11.43-.8-.07.25-.43H142l-.51.39-.73-.28-.33-.54-.07.39-.3.25.19.18-.74-.39-.58.18-.15-.5-.25.18-.92-.61-.55.39.08-.29-.51.08,0-.54-.26-.14-.18.17.15.58,0,0a.36.36,0,0,1-.33-.16.47.47,0,0,1-.07-.37l-.62.5L135.11,9l-.4.32-1-.86-.22.33V8l-.8.35a5.1,5.1,0,0,0-.84-.78l-.4.68-.08-.51-.25-.07,0,.4-.55-1.33.37-1.18-.29-.5,1.2-.93.48.64.4-.64.4.07.44-.07-.11.36.11.14.77-.54v.54l.44-.43.22.43.4-.32.18.1.15-.39.29.25.22-.21.07.07.51-.25a.38.38,0,0,0,.3.23q.18,0,.18.12a1.74,1.74,0,0,1-.07.4l.4.21,1.35-.28a5.19,5.19,0,0,1-.07,1.57l.37.11-.11.47.21.39L139.46,6l-.33-.61.51-.39-.14.54.47.21.44.68.18-.35.44.57-.07.25.8.32.26-.61.51-.07.37.75.14-.5.44.25-.18.29.33.5.11,0,.07-.51.37.11.18.32.37-.28.44.18.33-.22a2.55,2.55,0,0,0,2,.15c.14.23.51.39,1.09.46l.22-.21.66.21,1.21-.36.07.43.44.22.26-.22.91.11-.11-.68.22-.47h0l.14,0L152,6.48a1.12,1.12,0,0,1,.77-.26l-.22-.35-.15.25V6.05L152.19,6l-.11-.39.14-.43.41-.11v-.1l-.37-.08-.4-.39.58-.75a1.09,1.09,0,0,1-.07-.59.83.83,0,0,0-.26-.7l1.1-.75h.48A1.91,1.91,0,0,1,155.41,1l.36,1.11-.07.36.51,1.11-.4-.21-.22.39.66.93a3.86,3.86,0,0,1-.11,2.08l.29.43.44-.15.14.22-.36.32.11,1.22-.44,0v.07a.93.93,0,0,0,.91.22l-.55.25c.13.05.15.14.08.29s-.16.18-.26.1l.62.51.19-.18.22.39-.33.54.36.71-.07.54.15.36-.26,0-.26.29-.07-.57-.33.82-.18.18-.33-.39-.29.75-.37-.22-.07.18-.37-.39-.25.11a.33.33,0,0,0,.07.14.33.33,0,0,1,.07.14l-.22-.14-.14.39a6.8,6.8,0,0,1-.66-1.29q-.18-.06-.18.18A.18.18,0,0,0,154,13h-.44l-.15-.14,0-.39q0-.72-.66-.72v0l.26-.28-.22-.11-.48.57.37.4-.37.53-.11-.28-.18.39-.25-.18-1.14.32a2.68,2.68,0,0,0-1,.54l-.48-.36s0,.22,0,.58l-.44.93-.37-.29a1.22,1.22,0,0,1-.62.61,4.56,4.56,0,0,0-.73.47l-.44-.51-.07.69-.33.07-.33.61-.11,0-.4.64-.59,0-.8.68-.48-.11a2.88,2.88,0,0,1-1.06,2.08h-.66l-.14.32s0,0-.11-.05a.31.31,0,0,0-.15-.09l-.07,0,.22.36H142l-.07.22.32.21v.61a7.88,7.88,0,0,1,1.32.29,6.78,6.78,0,0,0,1.43.28.93.93,0,0,0,.29,0l2.19.61.33-.22.07-.32.33.47.22-.51.26,0,1.5-.54,0,.32h.07l.69-.64.33.57.19-.18-.15-.5,0,0,.44.14.21-.21.48.35.15-.68.29.93.18.08.44-.15.15.4.29-.47.36.29.11-.22L155,22l-.25.14.95.5-.44.22.25.21.19.65Zm-22.56-16a.88.88,0,0,1-.11-.29,2,2,0,0,0-.22.29Zm2.16-1.22h-.11l-.07.32h.11Zm0,1.07V7.19h-.08v.32Zm1.46-3.36a.24.24,0,0,1-.26.1,1.36,1.36,0,0,1-.44.47.59.59,0,0,0,.08.22,1.08,1.08,0,0,0-.33.82,2.55,2.55,0,0,1,.18-.47.4.4,0,0,0,.26.15c.07,0,.18-.18.33-.52a2.35,2.35,0,0,0,.21-.74Zm.44,4.19c-.37.07-.55.21-.55.43C137,8.74,137.22,8.6,137.27,8.34Zm.69-.83a1.45,1.45,0,0,0-.51.83A4.2,4.2,0,0,0,138,7.51Zm0-.86a1,1,0,0,0-.33-.5.82.82,0,0,0-.14.5Zm.11,3.41a.39.39,0,0,1-.15-.33l0-.07a.31.31,0,0,1,.15.25A.47.47,0,0,1,138.07,10.06Zm.18-3.76V6.08h-.11V6.3Zm2.67-.86a1.28,1.28,0,0,1-.54.39V5.44l-.3,0V5.26c-.09,0-.14,0-.14-.15s.11-.22.33-.32a.29.29,0,0,0-.11.22C140.16,5.25,140.41,5.39,140.92,5.44Zm.11,9.74a.24.24,0,0,1-.18.07,1.23,1.23,0,0,1-.51-.14.63.63,0,0,0,.18-.51C140.67,14.65,140.84,14.84,141,15.18Zm-.07,8V23h-.26v.11Zm.62-.4v-.1h-.25v.1Zm1.28-7a.27.27,0,0,0,0-.14l0-.11Zm.84,8.13c-.07-.14-.14-.22-.22-.22h0l-.08.4A.4.4,0,0,0,143.7,23.81Zm.15-5.87h-.33v-.15h.33Zm.62-4.3h-.22v.5c0,.17.06.26.18.29a.51.51,0,0,0,.11-.33A2.79,2.79,0,0,0,144.47,13.64Zm.33-.61c0-.1-.09-.17-.26-.22Zm.07,12.82,0,0v0c0,.1,0,.13-.07.11S144.85,25.85,144.87,25.85Zm.41-15.33h0c-.12,0-.24-.09-.37-.28C145,10.24,145.08,10.33,145.28,10.52Zm0,14.08a.46.46,0,0,0-.15-.33Zm.8.82v-.21h-.11v.21Zm.48-14.5-.33.1v-.1l.33-.08Zm1.31-.83V10h-.21v.14Zm.55,3.8-.11,0-.11.18.11.07Zm.77-3.08c0-.17-.13-.31-.4-.43l-.37.14.3.47a.34.34,0,0,1-.22-.07c0,.07.07.16.22.28C149,11,149.15,10.86,149.15,10.81Zm1.72-2.26V8.41l-.44.07v.14Zm.92,15.8c0-.17-.09-.25-.33-.25a1.22,1.22,0,0,1,0,.32ZM152,12.6v-.32h-.11v.32Zm.59-4.33V8.16L152.52,8l0,.07v.1l0,0Zm1.1,16.9c-.08.19-.17.29-.3.3a2.17,2.17,0,0,1-.36,0l.55-.32Zm.4-.93a.52.52,0,0,0-.11.32v.11a.9.9,0,0,0,.11-.29Zm.25-3.69-.1.14-.12,0,.12-.15Zm1.07.64-.26.26-.07,0C155.1,21.31,155.21,21.24,155.41,21.19Zm0-7.52-.11.15,0,0,.07-.14ZM156,4.94a2.9,2.9,0,0,1-.22-.29,2.63,2.63,0,0,0-.29.46.44.44,0,0,0,.25.08C155.86,5.19,155.94,5.1,156,4.94Zm0,19.26c0,.07-.11.13-.26.18a.35.35,0,0,1,0-.14V24.1c0-.08,0-.11.07-.11h.07Zm.59-16.54c0-.19-.19-.38-.55-.58a.36.36,0,0,0-.11-.25l-.15.72a3.26,3.26,0,0,0,.4-.25C156.32,7.32,156.45,7.44,156.58,7.66Zm-.08-2.87-.22,0,0-.11h.15Zm.55,6.2a.23.23,0,0,0-.11-.07l-.33.07.18.25a2,2,0,0,1,.26-.22Zm6.33,2.47a3.37,3.37,0,0,0-.55.29l-.48-.18a1.44,1.44,0,0,0-.51.25l-.18,0V14a4.25,4.25,0,0,1-.48.71l-.4.11-.22-.25,0-.25a2,2,0,0,1-.22-.54l.55-.21,0-.4h-.07l-.26.18-.36-.18a4,4,0,0,1-.07-.68l.14-.46-.07-.11c-.2-.05-.29-.16-.29-.32a7.6,7.6,0,0,1,.18-.76l.26-.07a5.06,5.06,0,0,0-.74-.71c.1,0,.28-.06.55-.11l0-.11,0-.11-.4.08-.07-.51-.19.26h-.07c.05-.55.07-.82.07-.79l.26.07.26-.22-.15-.07-.4,0h-.08l.33-.25,0-.18-.26,0h-.15l.26-.17,0-.29h-.11a.45.45,0,0,1-.51-.4,2.22,2.22,0,0,1,.07-.75l-.26-.18.11-.46a14.06,14.06,0,0,0-.25-2.22,14.32,14.32,0,0,1-.26-2.19l0-.28.4-.11a5.33,5.33,0,0,1,2.41.68l0,0c.12.27.32.64.58,1.11l0,.36a2,2,0,0,1,.4.72l-.37.25a2.38,2.38,0,0,1,.48,1.07l-.4-.07.18.43h.29c-.07.81-.11,1.17-.11,1.08a1.37,1.37,0,0,0,.15.64l0,.25.11.14.19-.1,0,.39v.43l-.22,0-.4,0,.26.32.29-.18,0,.43-.07,0L162.5,9l-.22.32.11.22.11,0,.26.33a1.34,1.34,0,0,0-.3.5l.11,0,.11-.28.33.1-.29.15.07.1-.18.86.11.15.36-.29a3.06,3.06,0,0,0,.08.75h-.4a4.82,4.82,0,0,1-.33.68l0,.18A5,5,0,0,1,163,12l.08.11-.15.32.44.22-.11.36ZM163,9.84l0-.25,0,.18Zm.55.86a1.08,1.08,0,0,1-.48-.21c0-.1.07-.18.19-.25A1.25,1.25,0,0,1,163.56,10.7Zm-.33.5h-.07l.07-.28.07,0Zm.33-1-.33-.07,0-.21C163.36,9.9,163.46,10,163.56,10.16Zm0,1.72a.43.43,0,0,1-.18.15v0c0-.12,0-.18.11-.18h0Z"/><path class="cls-1" d="M202.19,23.17l.2.36a5.67,5.67,0,0,1-2,1.5l-.32-.24-.35.16.39.2a3,3,0,0,1-1.22,1,4.77,4.77,0,0,1-1.63.54l-.11-.2-1.39.64.12-.2-.4-.24-.31.32.08.25-.2-.45-.4.69-.63-.28-.28.24h-.43l0-1h-.44v.36l.32.24-.08.33s0-.1-.2-.2l0,.08c0,.21,0,.33-.16.36l-1-.61-.27.17-.64-.49-.31.24a2.5,2.5,0,0,1-1.07-1.09l-.32.09-.55-.17.31-.28-.23-.4-.52.16-.67-.61-.44.21-.24-.12-.31-.73c.29-.16.43-.3.43-.4v-.13l-.51.29.24-.49-.8-.64.36-.33H186l-.27-.16.08-.4,0-.16.39-.16-.12-.33-.35.45-.6-1.29.44-1.17c0-.14-.08-.42-.4-.85l.12-.44-.24-.29.12-.44.24.24.12-.44-.2-.57-.79.57-.16,0,.24-.28-.56-.21.4-.36L183,15.06l-.56.65-.32-.53-.71.53a2.36,2.36,0,0,0-1.33-.26,1.41,1.41,0,0,1-1.36-.67l-.59.49a8.48,8.48,0,0,0-2.54-.21l-.12-.52.24-.16-.24-.28a.4.4,0,0,0-.11-.61,13.89,13.89,0,0,1,1.66-.24c2.93,0,4.76.16,5.5.48l.28-.24.47,0,.28-.73H184l0,.13,0,.08.52-.73-.12-.24-.36.12-.27-.44.67.16.67-.29-.35-.56.71-.89,0-.24-.44.56h0l-.27.49-.68-.4-.23.12-.08-.33c0-.05.06-.06.2,0a1.59,1.59,0,0,0,.31.08l0,0-.28-.24.24-.28V9.58l-.24-.2.2-.41.36-.12-.16-.2.2-.08,0,.28.35-.28L184.22,8l.32-.24V7.6h-.2a1.29,1.29,0,0,1-1-.52l-.32.16a5.47,5.47,0,0,1-2.65-.65l-.31.12a4.51,4.51,0,0,1-1.15-.2,5.1,5.1,0,0,0-1.15-.2l-1.27.52h0l-.63-.56a.37.37,0,0,0-.12-.52c.42-.19,1-.52,1.82-1a9.78,9.78,0,0,0,4,.36l.51.32a3.33,3.33,0,0,1,1.67,0l0,.2.67-.28-.32-.16.2-.48h.08l.51-.89-.15-.16c.71-.51,1.78-1.27,3.2-2.26l.48.52-.24.73-.24.12.28.85A3.3,3.3,0,0,1,187.9,5l-.47.28.24.36,0,0,0,0,.12.85.39,0-.16-.28.08,0a.67.67,0,0,0,.71-.08l.48.32.47-.28a11.21,11.21,0,0,1,1.59.52l.55-.36a3.46,3.46,0,0,0,1.59.28c.58,0,1.17,0,1.78,0v.08c0,.08.05.11.15.08s.2,0,.2-.16c.69.24,1.16.26,1.43,0a8.44,8.44,0,0,0,2.14.2,2.58,2.58,0,0,1,1,.33,2.79,2.79,0,0,0,1,.32,1.15,1.15,0,0,0,.72-.28H202l-.24.8c-.14.35-.29.49-.48.41l-.35.52.15.16-1.1.33V9.21l-.12-.28-.56.41-.87-.45-.2.12c-.21,0-.23-.14-.07-.44l-.36-.4v.36l-.67.48a7.44,7.44,0,0,0-2.34-.24l-.36-.24L194.24,8l.19,0-.23-.12-.56.41.2.36h-.39a10.51,10.51,0,0,1-4.95-.93l-.6.57L187.55,8a.79.79,0,0,1-.24.81v0l.4-.4.23.48-.35.24.59.65c-.21,0-.32.11-.32.16l.28.36,0,0-.32,0-.07.69.47.77,0,.16.16.48-.32.28.12.17-.35.32-.16-.24v.4l.43.36,1.19-.2a9.7,9.7,0,0,0,1.74.32l.4-.2.83.53.08-.21a.68.68,0,0,1-.24-.12l.12-.12.47.45.44-.17a.23.23,0,0,0,.28.13.61.61,0,0,0,.27-.21l1.35-.16.87.41.67-.25.48,0-.08.25.12.2.35-.45.36.21.2-.17.55.13.16-.17.2.37.28-.24.23.4.2-.16-.16.4.08.2.6-.84.43.12.63-.21.32.45v.12l-.36.44-.23-.24-.16.36-1.11.49c.08.08.22.08.44,0a4.39,4.39,0,0,0-.52,1.65,2,2,0,0,0-.87-.24,4.49,4.49,0,0,1-.91-.16l-.24-.32-1.46.36a.26.26,0,0,1-.24-.12l.48-.28.07-.17-.23-.08-.64.13h0l0-.25-.15-.12-.88.32.28.09-1.23.32-.19-.73-.2.12-.87-.36-.36.36.08.37-.71-.65-.91.69-.79-.53-.95.37s0-.11,0-.41l-.16,0-.36.12,0,.41-.12,0-.67.56.32.16.27-.36.4.16-.4.28h.36v.2l.39,1-.07,0-.28.24.24.45.39,0-.2.44c.16,0,.21.22.16.57l.24.28-.83.93.2.08.63-.21a2.38,2.38,0,0,1,.36.57l-.12.08,0-.2c0-.06-.08-.12-.24-.2l-.08.72.2.2.2-.4.19.53-.11.36.35,0,.4.32-.16.08c0,.06.14.08.43.08v.12l.28.45,1.47.68.39-.08.08.33.71-.33.8.29.27-.17.6.17,2.61-.89A3.41,3.41,0,0,1,199,22.71a3.62,3.62,0,0,1,1.5-.75l-.08-.2.32-.36.47.32.48-.52.51.16.28.8.12-.52.28-.24s0,.12-.08.28l.12.85A2.68,2.68,0,0,0,202.19,23.17ZM184.82,12.68a.27.27,0,0,0-.16-.08h0c-.06,0-.08,0-.08.12s.05.14.16.25a.33.33,0,0,0,.12-.21Zm1.9-.24a1.42,1.42,0,0,1-.16-.72,1.07,1.07,0,0,1-.36.08l-.2-.25a5.16,5.16,0,0,1-.59.21.83.83,0,0,0-.16-.21.91.91,0,0,1-.16.47.93.93,0,0,0-.16.42c0,.27.25.42.76.45a.46.46,0,0,0,.08-.21,3.4,3.4,0,0,1-.56-.44,1.11,1.11,0,0,1,.67-.36q.28,0,.36.48A2.75,2.75,0,0,0,186.72,12.44ZM185,8.33c.11-.08.16-.15.16-.2A.47.47,0,0,0,185,7.8Zm.6,2.38c0-.14-.08-.22-.24-.25A.47.47,0,0,0,185.61,10.71Zm.71,2.66-.12,0a.16.16,0,0,1,.12,0l.08-.08Zm.55,5.93v-.61l-.39.49A.74.74,0,0,0,186.87,19.3Zm.68-6.41-.32,0a.79.79,0,0,1,0,.32,2.81,2.81,0,0,0-.4-.08.53.53,0,0,1-.13.3c-.1.12-.14.19-.14.22s.17.23.51.36C187.14,13.73,187.31,13.37,187.55,12.89Zm0-3.07a.44.44,0,0,0-.32-.2,1.34,1.34,0,0,0-.67.32l.23.2.4-.28h.08A1,1,0,0,0,187.59,9.82Zm.19,2.54c-.31-.4-.55-.6-.71-.6a.29.29,0,0,0-.16.06.22.22,0,0,1-.12.06,1.13,1.13,0,0,1,.08.4v.16a.21.21,0,0,1,.12,0h.16a.38.38,0,0,1,.18.06.3.3,0,0,0,.14.06.38.38,0,0,0,.16-.1Q187.75,12.32,187.78,12.36Zm.88,7.83q-.36.19-.36.36a.23.23,0,0,0,0,.14.34.34,0,0,1,0,.1A4.46,4.46,0,0,0,188.66,20.19Zm8.19-4.08a1.59,1.59,0,0,1-.24-.16c-.13.14-.2.24-.2.32v0l.4.13Zm3.52-1.61a.32.32,0,0,0,0-.16h-.16c-.21,0-.38.24-.51.64a.22.22,0,0,0,.16,0H200c.05,0,.13-.07.23-.22A.71.71,0,0,0,200.37,14.5Zm1.11-5.65a.6.6,0,0,0-.16.16l0,0a1.23,1.23,0,0,1-.28-.12V8.85a.22.22,0,0,1,.2-.08h.08Zm0,12.47c-.08,0-.16-.06-.24-.17l.08-.08c.13,0,.2.06.2.17v0Zm.79-13.56h-.08V7.48h.08Z"/><path class="cls-1" d="M232.4,19V18.4h-.11v.34c-.15-.81-.25-1.4-.3-1.78l.34-.6a.19.19,0,0,1,0-.22.26.26,0,0,0,.1-.19h-.12l0,.15-.27.11c-.2,0-.16-.06.11-.19l-.37-.6c-.08.25-.22.38-.42.38a3.35,3.35,0,0,1-.9-.31l0,.08.08.45-.19-.22-.68.56-.27-.07-.26.3-.64,0-.53.64-.19-.27-.37.38c0,.05.08.06.18,0l.23-.08v0l-.56.53-.49-.42-.57.38c0,.1.06.14.19.11a.23.23,0,0,0,.19-.15l.3.38-.45.72h0l-.91.45-.83-.34-.56.34-.3-.19-.42.38-.34,0c-.25,0-.65.38-1.2,1.13l-.27-.45-.26.22-.6-.68-.08-.64,0,.31-.26-.08.34-.38.26-.07-.15-.19-.64.26-.34-.64.23-.19-.15-.41-.68-.34c-.08-.15,0-.24.11-.26a1,1,0,0,0,.19.26L220,17l.19,0s-.08,0-.23,0a.35.35,0,0,0-.3.11l-.19-1.28-.42.34-.34-.83.57,0,0,0,.27.34.11,0-.23-.6-.11.19-.19-.15.49-.76v0l-1,.75c.13-.1.09-.24-.11-.41l.15-.38-.08-.45-.22.34-.23-.38.15-.57-.45-.19v-.6l.68-.45V11.8a.42.42,0,0,0-.23-.34l-.37-.26h-.12l-.34-.72.34-.56.91.67.22-.26-.68-.79-.48.19-.53-.31.07-.15-.3-.71,0,.3-.26-.34a1.7,1.7,0,0,0,.07-1.32l.27-.56.11.07V6.6l-.6-.38.53-.79-.12-.3c.38-.91.91-1.36,1.59-1.36l.52.08a1.54,1.54,0,0,0,.76,1.24l-.15.23s.06.07.19.07a.56.56,0,0,0,.26,0l-.41.38.9.53,0,.19.23.37V7.2l.3.38-.3.56c.07.1.24.09.49,0l.41.26,0,.11.34.42-.12.22c-.12,0-.3-.17-.53-.52a.22.22,0,0,1,.08.15h0q0,.08-.21,0c-.13,0-.2,0-.2,0l.75.42.34,0-.26.34.52.68-.15.6a2.64,2.64,0,0,1,1,1.24l-.19.23-.3-.34,0,.11.34.38.23-.15.19.26-.42.27v.37l.34.19.08-.07-.12-.38,0-.15.42.87-.34.56.11.08.45-.11,0,.82-.15.12.3.86.11-.18.23.34.38-.16,0,.31.79-1a2.55,2.55,0,0,0,.68,0l.26.57.3-.19-.3-.3.08-.49.26.37a2.67,2.67,0,0,1,.68-.52l.22.07-.26-.41.19.15.11-.15h.3l.38.52h.23l0,0-.22-.38v-.79l.3.07c.53-.2.75-.34.68-.41l.45-.42.19.08.56-.72-.37-.15.3-.45.41-.19-.15-.3-.15.3-.19-.53h-.34l.27-.34-.11-.26-.42-.08L230,10s0-.07.11-.13.11-.12.11-.17,0-.05-.11-.08l.41-.26-.49-.34.3-.49-.45-.38.45-1-.45-.68.42-1c.9-.12,1.47-.37,1.69-.75l.38.3.15-.15.45.87.57.15-.42.56.38.42h0c0-.05,0-.14-.08-.27l.27-.6.3-.15v.45l-.23.08.38.6,0,.38.61,1.66-.16.26.38.38c0,.1-.07.16-.22.19a.29.29,0,0,1-.27-.12l-.45.27.11.41.27-.41a.34.34,0,0,1,.07.3l.27.37v-.33l.41.67.38-.26-.27.45.3.38.34-.23.49.61,1-.68c.05.1.14.12.27.07l.3-.11a8.36,8.36,0,0,1,1.58.21,8.21,8.21,0,0,0,1.55.2,2.46,2.46,0,0,0,.6-.07l.23.38a.77.77,0,0,1,.41-.15,1.47,1.47,0,0,1,.61.24,1,1,0,0,0,.71.17l.53.19.15.34,1.85,1.36v0l.9,1.13-.07.31.6.79-.26.79,0,0,.45-.23.26.68-.3.19c.07-.08,0-.15-.19-.23l-.34.79-.15,0,.3.41-.3.38.08.41-.3-.07-.5.22.12.34-.38.68-.11-.23A13.13,13.13,0,0,1,244,22.73l-.56-.19c-.08,0-.11.19-.11.49l-.08.19c-.18,0-.25-.09-.23-.28s0-.29-.11-.32l-.23.45-.3-.26s0,.12.08.38a2.78,2.78,0,0,1-1.47,1.5l-.83-.19-.19.19-.49-.19v.34l-.26-.3c0-.07.06-.12.19-.15a.34.34,0,0,0,.26-.22l-.19-.53-.23.34a.83.83,0,0,0-.34-.49.37.37,0,0,0-.07-.49l.11-.53-.26-.49.3-.72.64.12.11-.61.38-.3.26.64.27.15V21l.15-.23-.15,0,.41-.53,1.29-.22-.19-.34.26-.15.53.07.07-.41,1.13-.57.34.08.38-.3v0l.15.22,0-.15-.15-.49.11,0,.34-.15.08-.53-.12-.23-.41.19-.19-.94-.38-.26-.22.07.11-.38-.19-.41-.3.45-.45.19.34.45-.08.08.27.3-.19.45a3,3,0,0,1-.95-1.13l.08-.19-.56-.37-.53.67-.8-.41a.46.46,0,0,0,.12-.23l-.34-.07-.15.37-.53-.3L239.6,15l-.07,0-.72,1-.6-.15v-.12s-.07-.12-.19-.2-.22-.1-.27,0l0-.49c-.23.1-.28.24-.15.41l-.34.3a1.17,1.17,0,0,0-1-.15l-.12-.75s-.1,0-.22-.11l-.19.11.38.19L236,15l.11.45-.07.12c-.35-.35-.62-.53-.79-.53a2.9,2.9,0,0,0-.27.75l.57,1.06-.3.3.34.27v1l-.38.33v.42l.23-.11,0,.07-.22.6c.05.06.14,0,.26,0l-.6,1.17.3.26h0l.26.72-.3.07s.06.09.19.11.25,0,.3,0l-.49.41.15.27-.34.37c0,.15.17.23.49.23v0l-.19.71.38.53,0,.11-.41.15,0,0-.19-.57c.1-.15.13-.23.11-.23l-.34.16.79,1.73-.22.41.22.34-.53,0-.26.07.38.19.34.79-.46-.19c.06-.07.08,0,.08.19l-.15,0-.79-.15-.64.38-.83-.46.07-.11s-.06-.05-.19-.08-.16,0-.18,0l-.23-.37.23-.46-.08-.22a1.16,1.16,0,0,0,.11-.64c0-.2,0-.31-.11-.31l.11-.15c-.1.1-.16.08-.18-.07a7.24,7.24,0,0,0,.52-3.06,19.7,19.7,0,0,0-.52-3.09ZM218.68,7.05a1.1,1.1,0,0,0-.3.19.33.33,0,0,0,.22.11A2,2,0,0,0,218.68,7.05Zm.6,5.24H219l-.08.08v.22a.16.16,0,0,0,.06.13,1.13,1.13,0,0,0,.25.17A3.15,3.15,0,0,1,219.28,12.29Zm0,4.45-.42-.45a.41.41,0,0,1,.31.11A.48.48,0,0,1,219.32,16.74Zm.9-1.89h-.41c-.13.08-.19.14-.19.19l.08.08h.49A2.12,2.12,0,0,1,220.22,14.85Zm.87,5.85v.07l-.23-.3a.33.33,0,0,1-.22-.11l.07,0c.15,0,.27.1.34.3A.1.1,0,0,1,221.09,20.7Zm.49-6,0-.23a1.16,1.16,0,0,0-.53.23l.16.26A3,3,0,0,1,221.58,14.67Zm-.19,6.18c-.07,0-.11,0-.11-.12Zm.49-10.48-.07,0-.12.23.08,0Zm.49,6v-.11l-.3-.08v.12Zm.34-3.66h0q-.18,0-.18.12A.25.25,0,0,0,222.71,12.7Zm.38,2.53a.34.34,0,0,0-.27-.15c-.15,0-.22.08-.22.23s0,.1.11.15A.4.4,0,0,0,223.09,15.23Zm1,1.47a4.41,4.41,0,0,0-.11-.87h-.26l0,.12.23.15a.24.24,0,0,0-.12.22c0,.23.08.36.23.38Zm.46-1.17c-.13-.15-.22-.22-.27-.22s-.15,0-.15.07a.79.79,0,0,1-.07-.3l.34-.08A4,4,0,0,1,224.6,15.53Zm1.05.49-.07,0-.19.19,0,0Zm1.66,2.15H227a.38.38,0,0,1,.07-.22C227.24,18,227.31,18,227.31,18.17Zm1.32-4.33,0,.07v0a.15.15,0,0,1-.08.15l0,0v0A.34.34,0,0,1,228.63,13.84Zm.34,1.39-.08,0-.07.15h.07Zm.3-1.32H229v.3a2.51,2.51,0,0,1,0,.3l.15-.07A1.1,1.1,0,0,0,229.27,13.91Zm1.28-6.86a.21.21,0,0,0-.19-.23C230.41,7,230.48,7.05,230.55,7.05Zm.45-.34,0,.08V6.9s.05,0,.07-.08Zm.68,3.88q-.08-.37-.3-.45v.38Zm.61,8.15,0,.22h0Zm.11,6.59-.11.19C232.31,25.4,232.35,25.33,232.4,25.33ZM233.57,6l.11-.15A.16.16,0,0,1,233.57,6Zm.3,4a.43.43,0,0,0-.19-.26l-.07.34Zm1.36,11.16-.15-.38a.75.75,0,0,1,.15.34Zm.64,3.81-.08.07s-.12-.09-.22-.26Zm0,2.26h-.11V27h.11Zm.64-12.82c-.12,0-.2.08-.22.23a1.24,1.24,0,0,0,.26-.19Zm1,.11a.85.85,0,0,0,0-.22l-.08-.15v.3A.09.09,0,0,1,237.49,14.51Zm.08.08a.24.24,0,0,0,0,.11c.05,0,.07,0,.07-.07Zm1.09,6.79a.27.27,0,0,0-.19.11v-.26A.34.34,0,0,1,238.66,21.38Zm.41-6a.49.49,0,0,0-.41-.3l-.08.15.3.23A.26.26,0,0,0,239.07,15.38Zm.61-1.24-.27,0c0-.1,0-.17-.11-.19a1.94,1.94,0,0,1-.49.37,4.07,4.07,0,0,0,.34.31.2.2,0,0,0-.11.15l-.08,0v0a.56.56,0,0,0,.3.07,5.56,5.56,0,0,1-.07-.6v0a2.28,2.28,0,0,0,.41.15Zm1,.94a.27.27,0,0,1-.24-.09.65.65,0,0,1-.06-.32,2.63,2.63,0,0,1-.3.56.21.21,0,0,1,.11.19v.11C240.53,15.41,240.69,15.26,240.69,15.08Zm.15.83-.15-.08Zm1.7.72-.11.15-.08,0,.08-.15Zm.3,3.31q0-.15-.15-.15s-.06,0-.11.08a.11.11,0,0,0,.11.07Zm1.51-3.24-.26.23a1.1,1.1,0,0,1-.3-.19c.07-.18.26-.28.56-.3Zm.38,4.41-.15-.34c-.13.08-.19.15-.19.23h0Zm.75-7.12h-.07l0,.15,0,0Zm1.74,4a.79.79,0,0,1-.3-.07l.07.45A.53.53,0,0,0,247.22,18Zm-.08-1.81v-.11l-.07,0-.08.08Z"/><path class="cls-1" d="M288.42,22.28l.38.6-.11.68a.21.21,0,0,0-.27.19l.15.23-.34.26-.49.11.42.12-.3,1h-.15l-.31,0,.27.45h-.42l-.67-.34a1.91,1.91,0,0,1-1.32-.15l-.19-.45a14.44,14.44,0,0,1,.86-2.12,3.37,3.37,0,0,1-.11-1,2.23,2.23,0,0,0-.19-1.06l.23-.53-.34-.56.23-.38v-.57l-.34-.18-.12.26.12.68v.07l-.61.42.12-.57h-.46l.38-.6h-.56l0-.6.27-.27-.19-.15-.23.3-.3-.15-.26.23-.72-.57v-.18l-.19-.23-.3.26,0,.15-.6-.11-.27.64.19.45.15-.18.34.22h.41V19l-.33-.15-.12.19c0,.07.13.11.38.11v.11l-.19.34.19.42-.3.45-.19-.34-.42,0-.18.94.15.38-.46.15v0l.15.08.08-.16.3.16-1.47,1.69-.19-.15-.75.83-.23-.08a8.5,8.5,0,0,1-2.86,1.29l-.19-.15-1.17.41-.26-.15-.3.26c-.23-.05-.52-.12-.87-.22l-.57.53c-.1-.26-.17-.37-.22-.34l-.49.34-.61-.31-.75.53-.11-.22-.38.33v-.49c-.1.06,0,.08.38.08l0-.26-.22-.08-.27-.34-.49,1a1.42,1.42,0,0,0,0-.42l-.8.27a1.67,1.67,0,0,1,0-.34l-.15-.15-.6.53-.08-.61-.41.34.19.12-.23.15-.15-.46a.46.46,0,0,1-.15.34l-.72-.22.34-.38-.15-.19-.57.57-.64-.95-.11.61h0l-.41-.3-.15.26-.53-.19,0-.3L264,23.75l-.15.23-.64.19a1.49,1.49,0,0,0,.41-.46c0-.05.23-.07.61-.07l.15-.08-.91-.15,0-.34-.82.57v-.19l.45-.49-.6,0a.71.71,0,0,0-.27-.46l-.34.19,0-.45-.56-.45.11-.11-.19-.34.19-.34.15.15.27,0a2.59,2.59,0,0,1-.87-.72l-.26.08-.12,0,.42-.23-.23-.22.15-.38-.15-.38.3-.64-.3-.79c.15,0,.23,0,.23-.15a.61.61,0,0,0-.1-.26.81.81,0,0,1-.09-.27A6.9,6.9,0,0,1,261.3,15a4,4,0,0,1,1.07-1.81l.53,0,.19-.38.07,0,.08-.11-.11-.38.3-.38-.19-.26.49-.11v.07l.19.34v-.41l.68-.91.34-.07.41.6h0l.07-.64.49-.68.19.34.27-.45-.19-.46.07-.45-.22.15L266,8.86l.12-.38a2.84,2.84,0,0,0-.8-1.43l0-.11-.3-.61.38-.68.68-.37.22.15a10.4,10.4,0,0,1,1.81-.38l.45.34-.33,1.06.11-.08.11.15-.49.34.57.3.34-.07,0,.11-.15.6.49.08-.3.19.42.07.07-.22.08.6.64.23.07.45.15-.19.42.45a3.78,3.78,0,0,1,2.19-1l-.12.34.08.19.19-.6.22,0,.15.34-.15.11.15.34.38-.56.34.22a.31.31,0,0,1,.3,0,.35.35,0,0,1,.23.23l-.15.37q0-.11-.15-.33l-.12.26.38.34c.18-.35.21-.6.11-.75l.27-.46h.37l.12.34.18-.15L276,9l.42-.11.11.08-.08.33.12.19v.42l-.15.22.56.19-.15-.87.11-.11.53.19.27-.3,0,.3.41,0,.12.68c.12-.22.25-.34.37-.34l-.3-.38.38-.37-.38,0V8.9l.11-.53.23.11,0-.26.46,0v-.3l-.57-.15,0,.26h-.08l-.56,0,0-.15.45-.34-.6-.11.07-.41h.42a.93.93,0,0,1,.21-.49,1.69,1.69,0,0,0,.24-.46c.6-.47.94-.69,1-.64A2.5,2.5,0,0,1,281,4.56l.57.53v0l.49.71v.49h-.45l-.08.12,0,.15.38-.08s0,.12,0,.27l.22.52-.26.31-.19,0,.34.41.3-.37.15.45-.26.26.34.64c.07-.07.05-.21-.08-.41l.34-.3c.05,0,0,.12-.07.3l.11.6-.68.26.42.53.19-.26,0,.11.41.49v.08h-.6l-.49-.49-.19.11.91.87-.72.53v0s0,.07.11.12.12,0,.12,0l.79.87-.19.11.79.79-.15.3.34.34v-.68a6.44,6.44,0,0,0,.64.64,1.85,1.85,0,0,1,.41.76l.34-.15.08.26-.23.3v.12l.57.22.41-.3.87,1-.23.3-.07-.07-.19.11.83.34-.11.3.45.72h.26v.49l-.22.07.41.3.38,0-.61.64v-.42l-.22.23.22.64.38.19,0-.19.19-.19.08.75.26.19-.26.61.38.3-.31.41.34.27A1.84,1.84,0,0,0,288.42,22.28Zm-27.1-3.09v-.11h-.27v.11Zm0-3.24s0,0-.15,0l.11.07Zm.72,5c0-.1-.06-.15-.08-.15h0Zm.22-2.15a.62.62,0,0,0-.22,0s.08.06.11.16Zm.42,4.56-.08.15-.07,0,.07-.15Zm.15-10.7-.08.15-.11,0,.07-.15ZM274.1,23.45l-.34-1.06-.23.12-.07-.12.15-.34,0-.37-.27.56-.11-.49-.3-.15.45-.3-.45-.26-.53,0,.19-.37-.56-.34-.08-.45.15-.19-.15-.61-.15.12h-.26a1.38,1.38,0,0,1,0-.72l-.15-.23-.41,0-.38-.19-.19-.3.34-.53-.75-.07v-.34l.15-.26-.3.15a1.31,1.31,0,0,1,.07-.72l-.41-.3v-.23l.07,0q-.1-.18-.3-.6l-.3.38v-.11l-.19-.57-.23-.08a1.23,1.23,0,0,0,.34-.56l-.22-.23.15-.19a1.8,1.8,0,0,1-1.21-1.2l.08-.3a1,1,0,0,0-.94-.46,5.11,5.11,0,0,0-1.1,1.1,1.7,1.7,0,0,1-1.32.71l.08.27-.23.45.15.11-.22.15.49.23c-.15.25-.27.43-.34.53-.18.25-.34.37-.49.37a1.24,1.24,0,0,1-.31-.64l-.22.12,0,.3a4.9,4.9,0,0,1,.83.53v.64l-.23.41a.41.41,0,0,1,.38.45h-.3l.3.12a4.73,4.73,0,0,1-.07.83l.15.19-.08.26a1.68,1.68,0,0,1,.38,1h-.08l.12.34a1.34,1.34,0,0,1,.67,1.24,3.77,3.77,0,0,1,.68.79l-.11.27.3-.27c.38.33.91.84,1.59,1.55l.45-.19a5.22,5.22,0,0,1,.68.07,2.25,2.25,0,0,0,.75,0l-.11.3.45-.3.19.15.37-.19.27.12.45-.23a2.22,2.22,0,0,1,.49.3l.42-.37.34.18.22-.11.42.23.45-.42Zm-10,1,0,.11-.11.11A.38.38,0,0,1,264.14,24.47Zm.46-4.19,0-.11a.84.84,0,0,0-.38.19v.3h0C264.39,20.66,264.52,20.53,264.6,20.28Zm.22-6.1h0l-.18-.08.11,0,.11,0Zm.49-3.55H265v-.11h.3Zm.49,12.78h-.34l-.19.19a.67.67,0,0,1,.12.34.24.24,0,0,1,0,.11h.11A4,4,0,0,0,265.8,23.41ZM269.61,8.9l-.75.22,0,.12a4.6,4.6,0,0,0,.49,0A.34.34,0,0,0,269.61,8.9Zm.87,2.64.07-.08c0-.05-.05-.09-.15-.11v0Zm9,3.65a.51.51,0,0,0-.24-.43.48.48,0,0,1-.21-.51,5.6,5.6,0,0,1-.49-.34l.34-.19,0-.34-.34.19-.3-.22-.34.15a.77.77,0,0,1-.72-.34l0-.12-.11-.3-.42.19-.64-.41a1.25,1.25,0,0,1-.34-.64l-.53.22a3.51,3.51,0,0,0-.49-.56l0,.15-.19.15a11,11,0,0,0-2.56-.49l-.23-.23-.22.42-.23-.27a.43.43,0,0,0-.45.3l.26,0a.93.93,0,0,1,.68.45l-.22.45.18.34-.34.23,0,.37-.49.23a4.59,4.59,0,0,1,.61.64,3,3,0,0,1,.45-1l.07.26.23.08-.38.19v.41l.49.3-.3.38.38.19-.08.53.15-.15.64.3a.58.58,0,0,1,.31.56l-.08.31-.3-.27.11.45a.38.38,0,0,1,.42.38l.18.08v.11l0,.38.23-.15.11.07V18l-.11.11-.15-.22,0,.22,0,.19c.17,0,.36-.14.56-.41l.08.07-.23.19a2.23,2.23,0,0,1,.57.19.69.69,0,0,0,.28.47,1.23,1.23,0,0,1,.36.36l-.08.15-.11-.15v.19a.46.46,0,0,0-.41.15l.22.19,0,.19.27,0,.3.19-.08.41v0l.19,0,.3,0v.38a1.45,1.45,0,0,1,.34-.46l.15.12-.26.15.11.3,0,0a1.56,1.56,0,0,0,.49.6,1.74,1.74,0,0,0,.27-.64c0-.27.18-.4.41-.37a4.69,4.69,0,0,0,.34-.68.38.38,0,0,0,.19,0l-.12-.19a5.59,5.59,0,0,0,1.1-2L279,17.3a.46.46,0,0,1,.34-.15l-.19-.22a4,4,0,0,1,.13-.87A4,4,0,0,0,279.45,15.19Zm-6.94-1h-.26l.23-.3Zm.57-6.07c-.08.07-.2.19-.38.34l-.34-.08c.08-.17.27-.26.57-.26Zm-.45,6.11v.07a.72.72,0,0,1-.08.38v-.08A1,1,0,0,1,272.63,14.18Zm3.95,9.61V23.6h-.11v.19Zm1.21-12.67V11h-.34v.11Zm.91,0H278l.07.64s.11-.12.33-.22.32-.22.32-.34Zm.75,8.07v-.11h-.26v.11Zm.79-.3-.34-.08-.26.49.49.12a2.43,2.43,0,0,0,.15-.49ZM279.75,23c-.07,0-.11.06-.11.19.07,0,.11-.07.11-.12ZM280,6.33V6h-.12v.3Zm.49,3.85c-.21.07-.31.17-.31.3s.05.11.15.11h.08Zm.37-2.26h-.15l.08.26a.14.14,0,0,0,.11-.15A.24.24,0,0,0,280.88,7.92Zm.38,13.34A.85.85,0,0,0,281,21a.33.33,0,0,0,.11.26h.07Zm0-4.63v-.27h-.07v.27Zm.64.41a2,2,0,0,0-.56-.11l-.08.3a.58.58,0,0,1,.3-.15c.05,0,.1.07.15.22Zm-.37,1.62h-.08l-.08.19.08,0Zm.67-10.06-.26-.23c-.13,0-.3.16-.53.41l.3-.26a2,2,0,0,0,.42.38A1.32,1.32,0,0,0,282.16,8.6Zm.42,9.16c0,.1-.06.17-.19.22a.28.28,0,0,0,0,.15.41.41,0,0,1,0,.12l0,.07a.72.72,0,0,1-.27-.41Zm.41.37v0c0,.13,0,.19-.07.19l0,0C282.88,18.2,282.92,18.13,283,18.13Zm2.11,1.1V19H285v.23Zm.53,1.13q-.11.3-.3.3c-.1,0-.2-.16-.3-.49l.19.19Zm2-1.7-.07-.07c-.18.07-.27.15-.27.22a.26.26,0,0,0,.08.19A.43.43,0,0,0,287.63,18.66Z"/><path class="cls-1" d="M330.84,18.74l.11.11,0,.08-.07-.19h0l-.3.41.15.27-.27.52-.34-.07-.22.19.07.49c-.17,0-.26.15-.26.37a1.62,1.62,0,0,0,.3.91l0,0-.45.3-.07.61-.19-.08a.83.83,0,0,1-.91-.11l0-.34,0,0-.34.75h-.37c-.08-.1,0-.36.11-.79l-.38-.26c-.07.27-.12.41-.15.41l-.07-.07.07.6h-.07l-.23-.34-.64,1.17a3.29,3.29,0,0,1,.22,2,3.35,3.35,0,0,1,.34,1.4l-.07,0-.76.49-.15-.45-.79.15-.26-.15-.3.22.15.15.41-.07-.11.3-.6-.3-.23-.53.34-1-.49-1.09.22-.27-.18-.11,0-2.19-.42-.68-.22.08-2.6-1.55.18-.49-.3.23s-.17-.08-.45-.3l-.22,0-.34-.19-.46.22,0-.22,0-.12-.15.34-.53.12-.37-.34a2,2,0,0,1-.61-.15l-.45.71.45-.07-.45.49.64,1.39-.49.38-.19-.19-.07.3.26.57a.78.78,0,0,0-.24.47c0,.21-.07.42-.1.62l-.26-.07L315.79,25l-.3-.19c-.1.3-.19.54-.26.71a1.43,1.43,0,0,1-.49.57l-.23-.34-.3.23,0,.15a15.78,15.78,0,0,0-1.59.45l-.3-.27-.49.38a6.45,6.45,0,0,0-1.81,0l-.64-.45-.34.19-.41-.15-.34.07c-2.09-.57-3.18-1.23-3.28-2l-.26.15-.34-.22.26-.38s-.18,0-.38.08L304,22.92l-.16.08-.18-.49.41-.46h.34l-.53-.56-.34.38.08.3-.68,0,.94-1.06a1.69,1.69,0,0,0-1.17-1.09l.46-.31.22.19.57-.07v-.19l-.19-.11a.72.72,0,0,1-.15.22l-.27-.19.34-.64h.12l.52-.37-.22-.49a1.51,1.51,0,0,1,.38-1,4,4,0,0,0,.49-.74l.52-.19.3-.41v.53l.19.07.42-.53.22.19.27-.34.07-.49.19.15.64-.6.23.08.64-.38h0l.19.38.3-.15,0-.49.56-.08.72.72.26-.27.34.42.26-.27,0-.07.6-.68-.3.45.11.15.34-.19,0-.3.19.08.08-.08-.3-.45-.23.08-.45-.61-.38-.11,0-.45L309.84,12l-.27-.49A6.6,6.6,0,0,1,308,10.14a4.07,4.07,0,0,1-1.17-1.66A2.5,2.5,0,0,1,305.71,8a2.27,2.27,0,0,0-1.11-.49l-.08-.3L304,6.94h-.12l-1.13-.46,0-.22-.08,0L303.16,5l.42.31.75-.38a2.35,2.35,0,0,0,1.4.64l.22-.19.57.45.49-.3.34.15h0l-.07.49.41.15.11-.26.12.19.41.22.11-.22,1.08.6a2.44,2.44,0,0,1,.81.68l-.38.41,0,.19.45-.37.76.41v.11l.67.76.19-.11c.05,0,0,.06-.19.18l0,.34.34.19.15.49.26-.3.19.08.38.6.64.22.07.42a.59.59,0,0,0,.49,0l-.19.49.65.34-.08.3h.41l.27.64.07,0,.83.76-.37.34.49.41.07.38.72.71,1.54-.22.38.64.08-.42a1.82,1.82,0,0,0,1.62-.07l.64.6.22-.37.46.3.37-1.4a.35.35,0,0,0-.26-.07l-.11-1.74.07,0,0,0,.19-.19-.3-.34h0l.33-.22H322l-.08-.53.19-.41-.23-.12,0-1.17.38-.37-.42-.12V8.75a1.76,1.76,0,0,1,1.62-.8c.53.53.92.78,1.17.76l-.11.83-.42.3.87,1-.15,1-.07,0c.2.57.22,1,.07,1.16l.42.49-.08.19a3.84,3.84,0,0,1,.26,1.36l-.26-.08a4.15,4.15,0,0,0,.94,1.1l.08.3.22-.42.42-.07.15.45.94,0,.68,0-.19.34h.08L329,17l.56-.45A.53.53,0,0,1,330,17l-.41.31a.26.26,0,0,0,.41-.12l.46.15-.46.61.08.19s.06,0,.11-.1a.2.2,0,0,1,.15-.09l.08.34-.57.64.12,0,.37.15.15-.53.27.27ZM304,20.47h-.37a1.89,1.89,0,0,0,.34.42.21.21,0,0,0,0-.12Zm.12-2.83-.12.15-.07,0,.07-.15Zm.75.83-.07-.07-.27.15v.07ZM306.29,6v0l-.68-.27v.08Zm.3,10.55a2,2,0,0,1-.3.08,1.44,1.44,0,0,0,.15.37,1.09,1.09,0,0,0,.19-.37Zm7.92,2.72a1.31,1.31,0,0,0-.45-1.13l-.3.15-.23-.15-.23.15A1.66,1.66,0,0,1,313,18l-.49.12-.19-.08.08-.3-.08-.08-1.28.34-.34-.19-2.41.72a3.36,3.36,0,0,1-.87.75l0,.16c0,.15-.13.27-.38.37a2.65,2.65,0,0,0,.12.3,3.78,3.78,0,0,1-.16.87,3.73,3.73,0,0,0-.15.87c0,.7.72,1.32,2.15,1.85l.27.3.34-.12a8,8,0,0,0,1.65.57l.65-.08c.32,0,.49-.11.49-.26l-.19-.49.11,0,.34.68a.61.61,0,0,0,.19-.72,1.64,1.64,0,0,1,.26-.33l-.11-.19a4.34,4.34,0,0,0,.34-1.17l.83-.6-.23-.31A2.32,2.32,0,0,0,314.51,19.23Zm-6.86-3.43,0-.53c-.17.1-.29.39-.34.87C307.55,16,307.67,15.9,307.65,15.8Zm3.24-6.75V8.48c0-.15-.1-.22-.3-.22l-.07.6Zm.27,5.13-.08.26-.07,0,.07-.22Zm1.54-3.62-.07,0-.23.19.08.07Zm4.07,11.08a.74.74,0,0,0-.22-.45c0,.15-.07.36-.12.64A1,1,0,0,0,316.77,21.64ZM319.41,19v-.3h-.11V19ZM323,15.16a1.66,1.66,0,0,0-.26-.42.94.94,0,0,0-.15.38.54.54,0,0,1,.19,0H323Zm5,4.93h-.08l-.11.34h.07Zm.83,2a.43.43,0,0,0-.08.23v.15a.65.65,0,0,0,.12-.3Zm.26-.37-.22-.12A.85.85,0,0,0,329,22a.32.32,0,0,0,.07-.23Zm1.06-4.34H330l0,.26h.07Z"/><path class="cls-1" d="M372.33,26.85l-.33,0-.54.54c-.27.22-.42.41-.43.54l-.54,0,.2-.44-.33,0-.26-.32-.74.32a1.83,1.83,0,0,1,.1-.2l-.31-.2a1,1,0,0,0-.13.53v.08l.26.44-.47.5a.15.15,0,0,0-.07-.05.5.5,0,0,0-.15.05c-.08,0-.13.06-.15.05s-.2-.1-.27-.27c-.76,0-1.88.18-3.37.41l-.87-.53-.36.38-.72.07a.72.72,0,0,1-.71-.9l0-.13a2.74,2.74,0,0,1-1,.38l0,.41-.07-.63-.42,0,.11-.24s0-.06-.12-.09a.68.68,0,0,0-.29.06v-.46l-.39.21-.76-.89a2.21,2.21,0,0,0-1-.68l-.08.5-.46,0v-.42l-.44-.16.53-.37-.2-.15-.52.25a5.13,5.13,0,0,0-1.22-.77,1.5,1.5,0,0,1-.43.17l-.41-.08-.41-.08c-.13-.45-.31-1.15-.53-2.08l-.12.44-.55-.34.24-.43.42-.05v-.08l-1-.34a.62.62,0,0,0,.13-.61l.53-.33-.27-.23-.22-.81.3-.56-.42-.41.51-.58-.32-.24a9.28,9.28,0,0,0,.59-1.49,3.35,3.35,0,0,0,.74-.76l-.23-.77.66.06.58-.37.06-.29a1.83,1.83,0,0,0,.64.85q.75-.06.72-.69l.46-.46.06.72.35.32H358l-.4-.66h.09a1.69,1.69,0,0,1,.32.11,1.32,1.32,0,0,1,1-1.28l-.48-.29-.47.58-.11-.09a3.67,3.67,0,0,0-.09-.93l.5.05.35.24.86-.3,1,.42c.24-.18.37-.35.38-.51a.81.81,0,0,0-.05-.32.6.6,0,0,1-.06-.28,1,1,0,0,1,.17-.33,1.09,1.09,0,0,0,.18-.38A.16.16,0,0,0,361,11l.62-.36.28.52-.16.45c.16.12.23.24.22.35a2,2,0,0,1-.12.36l.25.52.41.08-.31-.78a3.47,3.47,0,0,1,1.11-.31l-.05.57.33.12,0-.42.33-.43h-.08a1.63,1.63,0,0,0-.46,0,2.23,2.23,0,0,1-.42,0l-.37-.12.17-1a6.27,6.27,0,0,0,.73.73l-.06-.26a.15.15,0,0,1,.18-.15,1.25,1.25,0,0,1,.44.16,1.69,1.69,0,0,1,.49-.33l-.47-.33.24-.4c-.13-.42-.35-.65-.65-.68a2.42,2.42,0,0,0-.67.11,2.53,2.53,0,0,1-.68.11l-.16,0,.56-.28L362.41,9l-.24.35-.45-.58-.52.7-.82-.65s0,.06-.05.12a1.08,1.08,0,0,0,.05.38l-.29-.44a.2.2,0,0,0,.14-.2.5.5,0,0,0-.07-.13l-.43.59-.67-.44-.05.08.08.51-.94-.17c.22,0,.35-.13.38-.46h-.13c-.3,0-.46.07-.48.29s-.07.12-.18.11-.34-.12-.35-.28l-.45-.13L356.63,8a.38.38,0,0,0-.13.45l-.35.26.19.22a2.59,2.59,0,0,0-.83-.53c0,.06-.26.11-.68.15l-.12-.59-.3.18-1-.83-.7.39.11-.28-.2-.1-.43.13q0-.12.06-.66L352,6.59a.18.18,0,0,0-.22.19,1,1,0,0,0,0,.31,1.28,1.28,0,0,1,0,.36c-.25,0-.37-.09-.36-.2a.94.94,0,0,1,.06-.18l.06-.14c0-.08-.06-.13-.2-.14a5.21,5.21,0,0,0-.76.55l-.11-.55-.49.33L349,6l-.32.35.08-.87h-.05a1.42,1.42,0,0,0-.94.33l-.49-.63-.21,0-.17-.39-.52.74,0-.58L346,4.86l-.12.45L345.65,5a2.06,2.06,0,0,0-.09-.61,1.84,1.84,0,0,1-.1-.61s.08-.29.24-.77l.06-.75.28.19-.32-.69,1.5-.95.43.79.52-.71.49.13.5,0-.12.4.07.18A3.39,3.39,0,0,1,350,.92a1.35,1.35,0,0,1-.06.66l.58-.45.21.52c.19-.26.35-.38.49-.37s.14.07.19.18l.2-.44.31.32a.8.8,0,0,1,.31-.22l0,0L353,1c.07.2.15.3.26.31s.06,0,.09,0h.12s0,.06,0,.17a.92.92,0,0,1-.06.22.65.65,0,0,0-.06.23c0,.16.14.26.47.29a4.24,4.24,0,0,0,1.56-.2c0,.08,0,.2,0,.35s0,.33-.05.54,0,.36,0,.47a2,2,0,0,1-.06.23.61.61,0,0,0-.06.22c0,.14,0,.21.15.22a.83.83,0,0,0,.25,0l-.17.53.24.52.24-1.35-.3-.78.66-.4-.27.64.27.32.29-.06a7,7,0,0,0,.43.87l.24-.44.44.75-.07.29a3.05,3.05,0,0,1,.87.49l.36-.72.58,0,.38.91a1.59,1.59,0,0,1,.17-.53l.48.29a.93.93,0,0,0-.2.32l.32.65a.28.28,0,0,1,.12,0s.07-.19.13-.57v0l.4.2.17.39c.21-.23.38-.34.49-.33a.5.5,0,0,1,.17.12.47.47,0,0,0,.26.12.33.33,0,0,0,.22-.08.43.43,0,0,1,.21-.09,3.07,3.07,0,0,1,.75.24,3,3,0,0,0,.8.23c.16,0,.26,0,.3-.14l.41,0a.65.65,0,0,1,.35.32.51.51,0,0,1,.17,0,1.34,1.34,0,0,1,.76.36l.27-.23c.26.11.5.21.72.32l1.4-.3,0,.51.51.29a1.33,1.33,0,0,1,.31-.22,8.18,8.18,0,0,1,1.43.31,8.76,8.76,0,0,0,1.39.31,2.23,2.23,0,0,1,0,.66l.8.37-.6.15.48.67a.32.32,0,0,1-.21.06.39.39,0,0,1-.14,0l-.14-.06a0,0,0,0,0-.05,0,.78.78,0,0,0,.06.34l-.44.17-.4-.12-.11.32a2.18,2.18,0,0,1,.39,1.21v.12l-.91-.12h-.41v0l.35-.22v-.08l-.23-.15a2.15,2.15,0,0,0-.65.66,2.07,2.07,0,0,1,.38.49L370,13l0-.3-.29.44-.23-.27a3.69,3.69,0,0,0-1.37.25,4,4,0,0,0-1.24.56c-.13,0-.18-.16-.13-.35l-.37-.11c0,.11,0,.23,0,.37a2,2,0,0,1,0,.33,1.22,1.22,0,0,1-.63,1l-.38-.33a1.43,1.43,0,0,1-.77.65,5.33,5.33,0,0,0-.87.46l-.45-.62a.79.79,0,0,0-.19.81l-.34.06-.47.66-.12-.05a.66.66,0,0,0-.52.71l-.7-.11-1,.71-.57-.18a2,2,0,0,0-.54,1.45l-.87.93-.75-.07-.19.36-.28-.23-.08,0,.17.43.54.05,0,.05a.89.89,0,0,1-.18.23l.39.28a1.85,1.85,0,0,0-.08.37c0,.11,0,.24,0,.38a5.87,5.87,0,0,1,1.59.43,12.23,12.23,0,0,0,1.57.55l.3-.1c.22.05.67.19,1.34.43a3,3,0,0,1,1.12.54l.4-.26.15-.32.32.57.26-.6.33.11,1-.12a1.49,1.49,0,0,0,.78-.35,1,1,0,0,0,.05.38h.08c.46-.48.74-.72.85-.71a.25.25,0,0,1,.27.25c0,.15,0,.31,0,.48a.19.19,0,0,0,.23-.19,1,1,0,0,0-.06-.33.85.85,0,0,1,0-.3s0,0,0,0a1.85,1.85,0,0,0,.48.21.16.16,0,0,0,.18-.11q0-.12.09-.12a1.15,1.15,0,0,1,.25.23.74.74,0,0,0,.29.24c.14,0,.22,0,.22-.11s0-.21-.15-.14l.17-.52.24,1.1.19.1.51-.08.13.47.37-.51.39.33.18-.19.56.79-.34.14,1.06.67-.52.25.27.23c0,.5.06.76.14.76h0ZM348.44,5a.55.55,0,0,1-.1-.34,3.22,3.22,0,0,1-.28.3ZM351,3.8h-.13l-.12.4h.13Zm0,1.29,0-.38h-.12l0,.38Zm2-3.82a.27.27,0,0,1-.3.09,2.63,2.63,0,0,1-.55.5.86.86,0,0,0,.06.25,1.32,1.32,0,0,0-.5,1,2.24,2.24,0,0,1,.3-.56c.07.15.15.22.23.23s.27-.19.47-.58a2.71,2.71,0,0,0,.32-.85Zm.06,4.95q-.63.08-.66.45A.55.55,0,0,0,353.07,6.22Zm.87-.88a1.85,1.85,0,0,0-.66.94A5.31,5.31,0,0,0,353.94,5.34Zm.09-1a1.58,1.58,0,0,0-.28-.61.85.85,0,0,0-.26.56Zm-.18,4a.39.39,0,0,1-.18-.39l.05-.08h0a.36.36,0,0,1,.14.3A.64.64,0,0,1,353.85,8.33Zm.55-4.4,0-.29h-.08l0,.29ZM355.84,24l0-.16-.33,0,0,.17Zm.87-9.37a.24.24,0,0,1-.22.06,1.26,1.26,0,0,1-.56-.21.76.76,0,0,0,.26-.56C356.35,14,356.52,14.26,356.71,14.66Zm-.16,8.94v-.13l-.25,0v.12Zm1-20.39a1.52,1.52,0,0,1-.66.4l.05-.5-.34.05,0-.29c-.11,0-.16-.05-.15-.13s.15-.3.41-.38a.36.36,0,0,0-.15.23C356.74,2.87,357,3.07,357.58,3.21Zm1.33,21.88c-.09-.17-.18-.26-.26-.27l-.12.45A.56.56,0,0,0,358.91,25.09Zm-.15-9.67a.26.26,0,0,0,.1-.16l-.07-.13Zm.93,2.75-.42,0,0-.12.41,0Zm.38,9.44,0,0v.05c0,.11-.05.16-.14.15v0C360,27.67,360,27.6,360.07,27.61Zm.54-1.45a.59.59,0,0,0-.17-.39Zm.22-13-.25,0-.05.58c0,.19,0,.31.18.34a.53.53,0,0,0,.2-.35A3,3,0,0,0,360.83,13.19Zm.43-.67c0-.11-.07-.22-.26-.31Zm.17,14.71,0-.25h-.13l0,.25ZM362.1,9.6h0c-.16,0-.31-.14-.43-.37C361.74,9.23,361.9,9.36,362.1,9.6Zm1.36.61-.34.1,0-.17.33-.05Zm1.66-.85V9.19l-.28,0,0,.16Zm.19,4.51h-.13l-.09.16.07.09Zm1.23-3.55c0-.2-.14-.38-.46-.54l-.43.13.29.6a.34.34,0,0,1-.25-.1c0,.05.07.16.23.31A2,2,0,0,0,366.54,10.32Zm1.66,16.21c0-.19-.12-.3-.39-.32a1.35,1.35,0,0,1,0,.41Zm.55-18.68V7.68l-.54,0v.16Zm1.51,19.86c-.1.21-.22.32-.36.32h-.42a1.78,1.78,0,0,1,.65-.32Zm-.65-15,0-.37h-.12l0,.37Zm1.2,13.88a.69.69,0,0,0-.16.41v.08a.58.58,0,0,0,.2-.32A1.19,1.19,0,0,0,370.81,26.63Zm.67-4.31-.1.16-.12-.05.14-.16Zm.6-12.14v0c0-.14,0-.22-.15-.22Zm.62,13-.36.26-.08-.05C372.29,23.31,372.44,23.24,372.7,23.18Zm.3,3.6a.37.37,0,0,1-.26.19.31.31,0,0,1-.07-.21v-.13a.11.11,0,0,1,.14-.11h.08Z"/><path class="cls-1" d="M415.62,19.45l-.2.4.05.38v0l-.7.4.3.4-.32.3.43.87h-.09l-.34-.32-.26.1a1.38,1.38,0,0,0,.38.86l-.49.83-.21.11.33.45-.28-.07-.4.67-.14-.22,0,.17-.06.2a8.43,8.43,0,0,1-3.05,1.65,13.68,13.68,0,0,0-3.17,1.43l-.06-.25-.64.15-.47-.25-1,.28-.36-.11a3.59,3.59,0,0,0-1.14.17,3.59,3.59,0,0,1-1.14.17c-.39,0-1.67-.3-3.84-.79v-.09l-.17-.43-.21,0-.91-.5a.84.84,0,0,1,.09-.58h-.42a10.8,10.8,0,0,0-.6-1.22l0-.16-.21-.48.11-.36.29.1.17-.11-.46-.87.4-.38-.15-.55s.05,0,.24.06l.14-.16-.09-.46.33-.43.37,0-.16.45h.08l.39-.09,0-.33.55-1,.69-.31.07.21a4.28,4.28,0,0,1,2.11-.89l.56.3v-.05l.39.71a2,2,0,0,0-.1-.72l.85-.26.75.48.35-.18.72.78.43-.09.16.47.17.06.46-.09,0,.29-.85.18a.88.88,0,0,0,.66.06,3.45,3.45,0,0,1,.63-.11,2.87,2.87,0,0,1,1.58,1.05l-.33.89a2.86,2.86,0,0,0,.43-.13l1,1,.3-.14.24-.31.24.06a1,1,0,0,1,.87-.42l0-.29.73-.77-.66-.6-.3.14-.36-.2v-.33l-.41-.12-.18-.31a2.08,2.08,0,0,0-.8-1.73l-.46,0,0-.25-.78-.65h-.08l.3-.14-.46-.37-.65.19-.42-.41-.21.11-.87-.58-.4.26v-.29l-.47.16-.17-.05a3.31,3.31,0,0,0-.83-.91l-1-.84-.72.11-.21-.48v-.08l.45,0c0-.39,0-.64-.05-.76a1.59,1.59,0,0,0-.36-.69l-.08-.55-.11-.09,0-.47.68-.56.39.28.6-.24.27.28.66-.44.12.13.91-.88.1.22a10.41,10.41,0,0,0,2.05-.57l.15.14,1-.46,0-.08c0-.06.12,0,.36.11l.16-.36-.88-.41-.18-.35-.75,0,0-.17,0-.08-.38.13a4.2,4.2,0,0,0-1-.69,3.4,3.4,0,0,1-1-.74l-.38,0-.17-.39-.16.36-.64-.72-.18.15-.62-.06L401.93,6l-.22.23-.95-1.08,0,.41-.14.23a3.7,3.7,0,0,1-.69-1.22l-.8.64L398,4.59a1.22,1.22,0,0,1-.63-.93c-.08,0-.05.16.1.34l0,.42h-.29l-1.34-.9-.6.28-.47-.42-.18.15-.42-.37-.3.1-.48-.21-.09,0-.18-.31-.22.1-1.25-.44q.3-1.47,1.11-1.77a3.74,3.74,0,0,1,1.64-.11l.44.66.53-.33a23.78,23.78,0,0,1,2.4.63l.92.37.34-.09.4.28.22-.15.42.37.5,0,.43.42.85-.22a3.82,3.82,0,0,1,1.48.71l.38-.09c1.35.12,2.2.48,2.57,1.1l.38-.13a3.38,3.38,0,0,1,.82.21,3.57,3.57,0,0,0,.81.22,1.57,1.57,0,0,0,1.38.37l.78,1.07.18-.15.23.31L412,6l.11-.28.12.55.16.1,0-.41.26-.11a.58.58,0,0,0,.06.3,1.34,1.34,0,0,0,0-.19c0-.07,0-.1,0-.1l.45.12c.19.08.31.06.38,0l.29.49.26-.15c.19,0,.21.13.06.34l-.29-.11.34.45.64-.19,1.34.4-.44.26-.19-.15-.05,0,.12.51-.5.5,0,.29-.45.34.34.4a.26.26,0,0,0-.22.19.21.21,0,0,0,.06.26l-.38.46.07.22a1.45,1.45,0,0,0-.62.4l.17.47-.76.1-.4-.16-.26.11-.13-.43-.49.37v0l-.35-.28-.52.29-.21-.06a10.89,10.89,0,0,0-2.12,1l-.16-.1-.33.47-.39.09-.23.27-.68.19,0,.29.18-.11c.55.36.95.46,1.18.31l.43.33.75,0,.35.28-.39.59.83.57v0l-.25-.48.13-.49.42.45-.07.29.09.38.52-.24,0,.24.33.53.3-.14-.37-.07v-.38l.28.23c0-.27.1-.4.16-.4l.14-.24-.14.24,0,.13h.37l-.09.58h0l.35-.22.34.49.26-.15.29.9-.49.38.14.34.4-.25.55.33-.15.78,0,.09.26-.14-.16.44.51.38.25-.06,0,.12-.37.47.24.06.61-.69ZM395.43,3.24a1.38,1.38,0,0,1-.4-.16,5,5,0,0,1,.25.48A.59.59,0,0,1,395.43,3.24Zm3.77,22.1c0-.11-.05-.17-.11-.17l0,0A.25.25,0,0,0,399.2,25.34Zm.68-20.09a.25.25,0,0,1-.22.07h-.08l-.07-.17ZM405,25.56l-.23-.19a.31.31,0,0,0-.07-.21l-.05.07,0-.33c-.07-.11-.62-.7-1.63-1.76a3.14,3.14,0,0,0,0-.42,1.89,1.89,0,0,0-.34.14,1.57,1.57,0,0,1-.51-.15,1.62,1.62,0,0,0-.47-.15c.07-.07.13-.14.19-.19l0-.21h-.12a.61.61,0,0,0-.25,0c.08.29.13.4.14.35,0,.3-.18.44-.46.41-.08,0-.25-.16-.5-.46l-.26.61a2.13,2.13,0,0,1,.14.34,3.08,3.08,0,0,0-.4.3.15.15,0,0,0-.08,0c-.22,0-.34.07-.36.26a.92.92,0,0,0,.15.47A1.12,1.12,0,0,1,400,25a.44.44,0,0,1-.11.24l.35-.13c.19,0,.3.15.34.4l.06-.7a1.14,1.14,0,0,0,.32.07l.35.32.18-.15a.64.64,0,0,0,.59.39c-.05,0,.05-.07.31-.18a.46.46,0,0,0,.43.28l-.07-.09a.37.37,0,0,1,.18-.19.7.7,0,0,1,.2-.36q.13.31.27.69l.41,0,0-.09.13-.07a3,3,0,0,1,.4.2.37.37,0,0,1,.18-.19l0,.05-.07.32v0A3.6,3.6,0,0,0,405,25.56Zm-4.88-2.22c0-.11-.07-.17-.24-.19l-.08,0A.74.74,0,0,0,400.09,23.34ZM401.9,6l0-.25a.12.12,0,0,1,0-.12c-.17,0-.26,0-.27.14A.55.55,0,0,0,401.9,6Zm.85,15.94c0-.45-.15-.68-.31-.7a3.92,3.92,0,0,0,0,.88A2.07,2.07,0,0,1,402.75,21.91Zm.35.24H403a.34.34,0,0,0-.1.24l0,.08A.61.61,0,0,0,403.1,22.15Zm.55,2.79a.31.31,0,0,1-.23.31A.48.48,0,0,1,403.65,24.94Zm.74-14.21-.24,0c0-.08.08-.12.13-.12Zm.75.48-.58-.05-.15.4a1.48,1.48,0,0,0,.35.2Zm-.23,4.52c0-.11-.13-.24-.42-.37l0,.45.36.2a.47.47,0,0,1,.05-.14A.47.47,0,0,0,404.91,15.73Zm.53-4.08,0-.08-.17.06v.13Zm2.52-7a.36.36,0,0,1-.29,0,.53.53,0,0,0,.11.21A1.67,1.67,0,0,1,408,4.67Zm-.19,12.18a.57.57,0,0,1-.07-.17v0Zm.56.72a1.22,1.22,0,0,1,0-.34l-.27.23A.39.39,0,0,1,408.33,17.57Zm1.07-6v0q0-.12-.15-.18C409.24,11.5,409.29,11.57,409.4,11.58ZM410,5.93h-.09l-.1.2.08,0Zm.36,14.4,0-.17-.4.3A1.41,1.41,0,0,0,410.38,20.33Zm.12-9.94c-.12.07-.18.15-.18.23h0a.16.16,0,0,0,.18-.16Zm2.18-3.47a.5.5,0,0,1-.3.09.36.36,0,0,0-.19-.22,1.72,1.72,0,0,1,0,.42l-.73-.32a.23.23,0,0,1,.07.18l-.29,0,0,.37a2.26,2.26,0,0,1,.28.2V7.64l-.06-.29.05-.08a1.3,1.3,0,0,0,.33.07.88.88,0,0,0,.29,0l.16.14s.09-.07.2-.23ZM411.6,6.4c0-.08-.14-.19-.35-.32a.5.5,0,0,0,.3.36Zm-.08,5.24h-.13l.09-.07Zm.34,9.4a.24.24,0,0,1-.16-.06l-.13,0v.13l.08.05A.38.38,0,0,0,411.86,21Zm1.26-4.39-.36-.15,0,.41A2.31,2.31,0,0,1,413.12,16.65Zm2.53-8.43s0,0,0,.08a.72.72,0,0,0,0,.13l0,.2a.18.18,0,0,1-.18.15,1.21,1.21,0,0,1,.09-.3A1.62,1.62,0,0,0,415.65,8.22Zm-.09,13.31,0,0q0,.13-.09.12A.33.33,0,0,1,415.56,21.53Z"/></g></g></svg>